%FSLAX34Y34*%
%MOMM*%
%LNSILK_TOP*%
G71*
G01*
%ADD10C, 0.240*%
%ADD11C, 0.210*%
%ADD12C, 0.200*%
%ADD13C, 0.100*%
%ADD14C, 0.250*%
%ADD15C, 0.300*%
%ADD16C, 0.000*%
%ADD17C, 0.170*%
%LPD*%
G54D10*
X468200Y-754950D02*
X258200Y-754950D01*
X258200Y-554950D01*
X468200Y-554950D01*
X468200Y-754950D01*
G54D10*
X505200Y-704950D02*
X468200Y-704950D01*
X468200Y-604950D01*
X505200Y-604950D01*
X505200Y-704950D01*
G54D10*
X258200Y-614950D02*
X230200Y-614950D01*
X220200Y-654950D01*
X230200Y-694950D01*
X258200Y-694950D01*
G54D10*
X505200Y-654950D02*
X220200Y-654950D01*
G54D10*
X363200Y-719950D02*
X363200Y-714950D01*
X348200Y-714950D01*
G54D10*
X300200Y-719950D02*
X300200Y-714950D01*
X285200Y-714950D01*
G54D10*
X280200Y-714950D02*
X300200Y-694950D01*
X300200Y-589950D01*
G54D10*
X343200Y-714950D02*
X363200Y-694950D01*
X363200Y-589950D01*
G54D10*
X426200Y-589950D02*
X426200Y-694950D01*
X406200Y-714950D01*
G54D10*
X426200Y-719950D02*
X426200Y-714950D01*
X411200Y-714950D01*
G54D11*
X128200Y-768950D02*
X318200Y-768950D01*
X318200Y-938950D01*
X128200Y-938950D01*
X128200Y-768950D01*
G54D11*
X223200Y-773950D02*
X223200Y-933950D01*
G54D11*
X133200Y-853950D02*
X313200Y-853950D01*
G54D12*
G75*
G01X283200Y-853950D02*
G03X283200Y-853950I-60000J0D01*
G01*
G54D10*
X-21800Y-554950D02*
X188200Y-554950D01*
X188200Y-754950D01*
X-21800Y-754950D01*
X-21800Y-554950D01*
G54D10*
X-58800Y-604950D02*
X-21800Y-604950D01*
X-21800Y-704950D01*
X-58800Y-704950D01*
X-58800Y-604950D01*
G54D10*
X188200Y-694950D02*
X216200Y-694950D01*
X226200Y-654950D01*
X216200Y-614950D01*
X188200Y-614950D01*
G54D10*
X-58800Y-654950D02*
X226200Y-654950D01*
G54D10*
X83200Y-589950D02*
X83200Y-594950D01*
X98200Y-594950D01*
G54D10*
X146200Y-589950D02*
X146200Y-594950D01*
X161200Y-594950D01*
G54D10*
X166200Y-594950D02*
X146200Y-614950D01*
X146200Y-719950D01*
G54D10*
X103200Y-594950D02*
X83200Y-614950D01*
X83200Y-719950D01*
G54D10*
X20200Y-719950D02*
X20200Y-614950D01*
X40200Y-594950D01*
G54D10*
X20200Y-589950D02*
X20200Y-594950D01*
X35200Y-594950D01*
G54D10*
X468200Y-512950D02*
X258200Y-512950D01*
X258200Y-312950D01*
X468200Y-312950D01*
X468200Y-512950D01*
G54D10*
X505200Y-462950D02*
X468200Y-462950D01*
X468200Y-362950D01*
X505200Y-362950D01*
X505200Y-462950D01*
G54D10*
X258200Y-372950D02*
X230200Y-372950D01*
X220200Y-412950D01*
X230200Y-452950D01*
X258200Y-452950D01*
G54D10*
X505200Y-412950D02*
X220200Y-412950D01*
G54D10*
X363200Y-477950D02*
X363200Y-472950D01*
X348200Y-472950D01*
G54D10*
X300200Y-477950D02*
X300200Y-472950D01*
X285200Y-472950D01*
G54D10*
X280200Y-472950D02*
X300200Y-452950D01*
X300200Y-347950D01*
G54D10*
X343200Y-472950D02*
X363200Y-452950D01*
X363200Y-347950D01*
G54D10*
X426200Y-347950D02*
X426200Y-452950D01*
X406200Y-472950D01*
G54D10*
X426200Y-477950D02*
X426200Y-472950D01*
X411200Y-472950D01*
G54D10*
X-21800Y-312950D02*
X188200Y-312950D01*
X188200Y-512950D01*
X-21800Y-512950D01*
X-21800Y-312950D01*
G54D10*
X-58800Y-362950D02*
X-21800Y-362950D01*
X-21800Y-462950D01*
X-58800Y-462950D01*
X-58800Y-362950D01*
G54D10*
X188200Y-452950D02*
X216200Y-452950D01*
X226200Y-412950D01*
X216200Y-372950D01*
X188200Y-372950D01*
G54D10*
X-58800Y-412950D02*
X226200Y-412950D01*
G54D10*
X83200Y-347950D02*
X83200Y-352950D01*
X98200Y-352950D01*
G54D10*
X146200Y-347950D02*
X146200Y-352950D01*
X161200Y-352950D01*
G54D10*
X166200Y-352950D02*
X146200Y-372950D01*
X146200Y-477950D01*
G54D10*
X103200Y-352950D02*
X83200Y-372950D01*
X83200Y-477950D01*
G54D10*
X20200Y-477950D02*
X20200Y-372950D01*
X40200Y-352950D01*
G54D10*
X20200Y-347950D02*
X20200Y-352950D01*
X35200Y-352950D01*
G54D13*
G75*
G01X52893Y-856049D02*
G03X19507Y-856049I-16693J35799D01*
G01*
G54D13*
X19900Y-856550D02*
X52700Y-856550D01*
G54D13*
X35900Y-900950D02*
X45900Y-900950D01*
X45900Y-910950D01*
X100900Y-910950D01*
X100900Y-900950D01*
X110900Y-900950D01*
G54D13*
X100900Y-900950D02*
X100900Y-890950D01*
X45900Y-890950D01*
X45900Y-900950D01*
G54D14*
G75*
G01X471773Y-787987D02*
G03X471773Y-841913I-12573J-26963D01*
G01*
G54D15*
X471500Y-788550D02*
X471500Y-841750D01*
G54D12*
X392400Y-913650D02*
X392400Y-888250D01*
X335200Y-888250D01*
X335200Y-913650D01*
X392400Y-913650D01*
G54D12*
X367000Y-910550D02*
X367000Y-891350D01*
G54D12*
X360600Y-910550D02*
X360600Y-891350D01*
G54D12*
X360600Y-900950D02*
X338400Y-900950D01*
G54D12*
X367000Y-900950D02*
X389200Y-900950D01*
G54D13*
X339200Y-789950D02*
X339200Y-799950D01*
X329200Y-799950D01*
X329200Y-854950D01*
X339200Y-854950D01*
X339200Y-864950D01*
G54D13*
X339200Y-854950D02*
X349200Y-854950D01*
X349200Y-799950D01*
X339200Y-799950D01*
G54D13*
X83800Y-778650D02*
X83800Y-788650D01*
X73800Y-788650D01*
X73800Y-843650D01*
X83800Y-843650D01*
X83800Y-853650D01*
G54D13*
X83800Y-843650D02*
X93800Y-843650D01*
X93800Y-788650D01*
X83800Y-788650D01*
G54D12*
X124000Y-521250D02*
X124000Y-546650D01*
X181200Y-546650D01*
X181200Y-521250D01*
X124000Y-521250D01*
G54D12*
X149400Y-524350D02*
X149400Y-543550D01*
G54D12*
X155800Y-524350D02*
X155800Y-543550D01*
G54D12*
X155800Y-533950D02*
X178000Y-533950D01*
G54D12*
X149400Y-533950D02*
X127200Y-533950D01*
G54D13*
X20200Y-533950D02*
X30200Y-533950D01*
X30200Y-543950D01*
X85200Y-543950D01*
X85200Y-533950D01*
X95200Y-533950D01*
G54D13*
X85200Y-533950D02*
X85200Y-523950D01*
X30200Y-523950D01*
X30200Y-533950D01*
G54D12*
X292173Y-145850D02*
X292173Y-120450D01*
X234973Y-120450D01*
X234973Y-145850D01*
X292173Y-145850D01*
G54D12*
X266773Y-142750D02*
X266773Y-123550D01*
G54D12*
X260373Y-142750D02*
X260373Y-123550D01*
G54D12*
X260373Y-133150D02*
X238173Y-133150D01*
G54D12*
X266773Y-133150D02*
X288973Y-133150D01*
G54D13*
X471200Y-47950D02*
X471200Y-57950D01*
X461200Y-57950D01*
X461200Y-112950D01*
X471200Y-112950D01*
X471200Y-122950D01*
G54D13*
X471200Y-112950D02*
X481200Y-112950D01*
X481200Y-57950D01*
X471200Y-57950D01*
G54D13*
X138700Y-202950D02*
X138700Y-222950D01*
X131200Y-222950D01*
X123700Y-230450D01*
X123700Y-247950D01*
X131200Y-255450D01*
X138700Y-255450D01*
X138700Y-277950D01*
X36200Y-277950D01*
X36200Y-202950D01*
X138700Y-202950D01*
G54D13*
X15200Y-277950D02*
X15200Y-267950D01*
X25200Y-267950D01*
X25200Y-212950D01*
X15200Y-212950D01*
X15200Y-202950D01*
G54D13*
X15200Y-212950D02*
X5200Y-212950D01*
X5200Y-267950D01*
X15200Y-267950D01*
G54D13*
X51541Y-166491D02*
X61541Y-166491D01*
X61541Y-176491D01*
X116541Y-176492D01*
X116541Y-166491D01*
X126541Y-166491D01*
G54D13*
X116541Y-166491D02*
X116541Y-156492D01*
X61541Y-156491D01*
X61541Y-166491D01*
G54D16*
X-21800Y-809450D02*
X-1800Y-809450D01*
X-1800Y-854450D01*
X-21800Y-854450D01*
X-21800Y-809450D01*
G36*
X-21800Y-814450D02*
X-1800Y-814450D01*
X-1800Y-821950D01*
X-21800Y-821950D01*
X-21800Y-814450D01*
G37*
G54D16*
X-21800Y-814450D02*
X-1800Y-814450D01*
X-1800Y-821950D01*
X-21800Y-821950D01*
X-21800Y-814450D01*
G54D13*
X171300Y-297550D02*
X171300Y-287550D01*
X181300Y-287550D01*
X181300Y-232550D01*
X171300Y-232550D01*
X171300Y-222550D01*
G54D13*
X171300Y-232550D02*
X161300Y-232550D01*
X161300Y-287550D01*
X171300Y-287550D01*
G54D13*
X188200Y-177950D02*
X258200Y-177950D01*
G54D13*
X188200Y-177950D02*
X188200Y-307950D01*
G54D13*
X188200Y-307950D02*
X258200Y-307950D01*
X258200Y-177950D01*
G54D13*
X223200Y-177950D02*
X223200Y-307950D01*
G54D13*
X188200Y-242950D02*
X258200Y-242950D01*
G54D13*
G75*
G01X253200Y-242950D02*
G03X253200Y-242950I-30000J0D01*
G01*
G54D13*
X211200Y-406950D02*
X211200Y-396950D01*
X221200Y-396950D01*
X221200Y-341950D01*
X211200Y-341950D01*
X211200Y-331950D01*
G54D13*
X211200Y-341950D02*
X201200Y-341950D01*
X201200Y-396950D01*
X211200Y-396950D01*
G54D12*
X302508Y-275321D02*
X302508Y-300721D01*
X359708Y-300721D01*
X359708Y-275320D01*
X302508Y-275321D01*
G54D12*
X327908Y-278421D02*
X327908Y-297621D01*
G54D12*
X334308Y-278421D02*
X334308Y-297621D01*
G54D12*
X334308Y-288021D02*
X356508Y-288021D01*
G54D12*
X327908Y-288021D02*
X305708Y-288021D01*
G54D13*
X214200Y-106950D02*
X224200Y-106950D01*
X224200Y-116950D01*
X279200Y-116950D01*
X279200Y-106950D01*
X289200Y-106950D01*
G54D13*
X279200Y-106950D02*
X279200Y-96950D01*
X224200Y-96950D01*
X224200Y-106950D01*
G54D12*
X215500Y-523150D02*
X240900Y-523150D01*
X240900Y-465950D01*
X215500Y-465950D01*
X215500Y-523150D01*
G54D12*
X218600Y-497750D02*
X237800Y-497750D01*
G54D12*
X218600Y-491350D02*
X237800Y-491350D01*
G54D12*
X228200Y-491350D02*
X228200Y-469150D01*
G54D12*
X228200Y-497750D02*
X228200Y-519950D01*
G54D13*
X378200Y-789950D02*
X378200Y-799950D01*
X368200Y-799950D01*
X368200Y-854950D01*
X378200Y-854950D01*
X378200Y-864950D01*
G54D13*
X378200Y-854950D02*
X388200Y-854950D01*
X388200Y-799950D01*
X378200Y-799950D01*
G54D13*
X441200Y-48950D02*
X441200Y-58950D01*
X431200Y-58950D01*
X431200Y-113950D01*
X441200Y-113950D01*
X441200Y-123950D01*
G54D13*
X441200Y-113950D02*
X451200Y-113950D01*
X451200Y-58950D01*
X441200Y-58950D01*
G54D13*
X396000Y-48950D02*
X396000Y-58950D01*
X386000Y-58950D01*
X386000Y-113950D01*
X396000Y-113950D01*
X396000Y-123950D01*
G54D13*
X396000Y-113950D02*
X406000Y-113950D01*
X406000Y-58950D01*
X396000Y-58950D01*
G54D13*
X364700Y-48950D02*
X364700Y-58950D01*
X354700Y-58950D01*
X354700Y-113950D01*
X364700Y-113950D01*
X364700Y-123950D01*
G54D13*
X364700Y-113950D02*
X374700Y-113950D01*
X374700Y-58950D01*
X364700Y-58950D01*
G54D12*
X426241Y-256179D02*
X426241Y-230779D01*
X369040Y-230779D01*
X369041Y-256180D01*
X426241Y-256179D01*
G54D12*
X400841Y-253079D02*
X400840Y-233879D01*
G54D12*
X394441Y-253079D02*
X394441Y-233879D01*
G54D12*
X394440Y-243479D02*
X372241Y-243479D01*
G54D12*
X400841Y-243479D02*
X423041Y-243479D01*
G54D13*
X15800Y-136550D02*
X25800Y-136550D01*
X25800Y-146550D01*
X80800Y-146550D01*
X80800Y-136550D01*
X90800Y-136550D01*
G54D13*
X80800Y-136550D02*
X80800Y-126550D01*
X25800Y-126550D01*
X25800Y-136550D01*
G54D13*
X15800Y-98550D02*
X25800Y-98550D01*
X25800Y-108550D01*
X80800Y-108550D01*
X80800Y-98550D01*
X90800Y-98550D01*
G54D13*
X80800Y-98550D02*
X80800Y-88550D01*
X25800Y-88550D01*
X25800Y-98550D01*
G54D13*
G75*
G01X27400Y-52950D02*
G03X27400Y-52950I-22500J0D01*
G01*
G54D13*
X4900Y-40450D02*
X4900Y-47950D01*
X-7600Y-47950D01*
X17400Y-47950D01*
G54D13*
X-7600Y-55450D02*
X-7600Y-52950D01*
X17400Y-52950D01*
X17400Y-57950D01*
X-7600Y-57950D01*
X-7600Y-55450D01*
G54D13*
X4900Y-57950D02*
X4900Y-65450D01*
G54D13*
G75*
G01X187310Y-143431D02*
G03X187310Y-143431I-22500J0D01*
G01*
G54D13*
X164810Y-155930D02*
X164810Y-148430D01*
X177310Y-148431D01*
X152310Y-148431D01*
G54D13*
X177310Y-140931D02*
X177310Y-143431D01*
X152310Y-143431D01*
X152310Y-138431D01*
X177310Y-138431D01*
X177310Y-140931D01*
G54D13*
X164810Y-138431D02*
X164810Y-130930D01*
G54D13*
X288843Y-90172D02*
X268843Y-90172D01*
X268843Y-82672D01*
X261343Y-75172D01*
X243843Y-75172D01*
X236343Y-82672D01*
X236343Y-90172D01*
X213843Y-90172D01*
X213843Y12328D01*
X288843Y12328D01*
X288843Y-90172D01*
G54D13*
X416200Y-865150D02*
X416200Y-855150D01*
X406200Y-855150D01*
X406200Y-800150D01*
X416200Y-800150D01*
X416200Y-790150D01*
G54D13*
X416200Y-800150D02*
X426200Y-800150D01*
X426200Y-855150D01*
X416200Y-855150D01*
G54D12*
X215500Y-600150D02*
X240900Y-600150D01*
X240900Y-542950D01*
X215500Y-542950D01*
X215500Y-600150D01*
G54D12*
X218600Y-574750D02*
X237800Y-574750D01*
G54D12*
X218600Y-568350D02*
X237800Y-568350D01*
G54D12*
X228200Y-568350D02*
X228200Y-546150D01*
G54D12*
X228200Y-574750D02*
X228200Y-596950D01*
G54D13*
X326200Y-106950D02*
X326200Y-116950D01*
X316200Y-116950D01*
X316200Y-171950D01*
X326200Y-171950D01*
X326200Y-181950D01*
G54D13*
X326200Y-171950D02*
X336200Y-171950D01*
X336200Y-116950D01*
X326200Y-116950D01*
G54D13*
X288741Y-168608D02*
X288741Y-178608D01*
X278742Y-178608D01*
X278741Y-233609D01*
X288742Y-233609D01*
X288741Y-243608D01*
G54D13*
X288742Y-233609D02*
X298742Y-233608D01*
X298742Y-178609D01*
X288741Y-178608D01*
G54D13*
G75*
G01X348700Y-231350D02*
G03X348700Y-231350I-22500J0D01*
G01*
G54D13*
X326200Y-218850D02*
X326200Y-226350D01*
X313700Y-226350D01*
X338700Y-226350D01*
G54D13*
X313700Y-233850D02*
X313700Y-231350D01*
X338700Y-231350D01*
X338700Y-236350D01*
X313700Y-236350D01*
X313700Y-233850D01*
G54D13*
X326200Y-236350D02*
X326200Y-243850D01*
G54D13*
G75*
G01X187349Y-72999D02*
G03X187349Y-72999I-22500J0D01*
G01*
G54D13*
X164849Y-85499D02*
X164850Y-77999D01*
X177350Y-77999D01*
X152350Y-77999D01*
G54D13*
X177350Y-70499D02*
X177349Y-72999D01*
X152349Y-72999D01*
X152350Y-67999D01*
X177349Y-67999D01*
X177350Y-70499D01*
G54D13*
X164849Y-67999D02*
X164849Y-60499D01*
G54D13*
X165041Y41691D02*
X165041Y31692D01*
X155042Y31692D01*
X155041Y-23309D01*
X165042Y-23309D01*
X165041Y-33309D01*
G54D13*
X165042Y-23309D02*
X175042Y-23308D01*
X175042Y31691D01*
X165041Y31692D01*
G54D17*
X352200Y-932850D02*
X344200Y-932850D01*
X344200Y-932017D01*
X345200Y-930350D01*
X351200Y-925350D01*
X352200Y-923683D01*
X352200Y-922017D01*
X351200Y-920350D01*
X349200Y-919517D01*
X347200Y-919517D01*
X345200Y-920350D01*
X344200Y-922017D01*
G54D17*
X363900Y-932850D02*
X355900Y-932850D01*
X355900Y-932017D01*
X356900Y-930350D01*
X362900Y-925350D01*
X363900Y-923683D01*
X363900Y-922017D01*
X362900Y-920350D01*
X360900Y-919517D01*
X358900Y-919517D01*
X356900Y-920350D01*
X355900Y-922017D01*
G54D17*
X375600Y-922017D02*
X375600Y-930350D01*
X374600Y-932017D01*
X372600Y-932850D01*
X370600Y-932850D01*
X368600Y-932017D01*
X367600Y-930350D01*
X367600Y-922017D01*
X368600Y-920350D01*
X370600Y-919517D01*
X372600Y-919517D01*
X374600Y-920350D01*
X375600Y-922017D01*
G54D17*
X379300Y-932850D02*
X379300Y-925350D01*
G54D17*
X379300Y-927017D02*
X380300Y-925850D01*
X382300Y-925350D01*
X384300Y-925850D01*
X385300Y-927017D01*
X385300Y-932850D01*
G54D17*
X345400Y-838650D02*
X345400Y-846650D01*
X344567Y-846650D01*
X342900Y-845650D01*
X337900Y-839650D01*
X336233Y-838650D01*
X334567Y-838650D01*
X332900Y-839650D01*
X332067Y-841650D01*
X332067Y-843650D01*
X332900Y-845650D01*
X334567Y-846650D01*
G54D17*
X345400Y-834950D02*
X332067Y-834950D01*
X340400Y-829950D01*
X332067Y-824950D01*
X345400Y-824950D01*
G54D17*
X345400Y-813250D02*
X345400Y-821250D01*
X344567Y-821250D01*
X342900Y-820250D01*
X337900Y-814250D01*
X336233Y-813250D01*
X334567Y-813250D01*
X332900Y-814250D01*
X332067Y-816250D01*
X332067Y-818250D01*
X332900Y-820250D01*
X334567Y-821250D01*
G54D17*
X48929Y-538972D02*
X40929Y-538972D01*
X40929Y-538139D01*
X41929Y-536472D01*
X47929Y-531472D01*
X48929Y-529806D01*
X48929Y-528139D01*
X47929Y-526472D01*
X45929Y-525639D01*
X43929Y-525639D01*
X41929Y-526472D01*
X40929Y-528139D01*
G54D17*
X52629Y-538972D02*
X52629Y-525639D01*
X57629Y-533972D01*
X62629Y-525639D01*
X62629Y-538972D01*
G54D17*
X74329Y-538972D02*
X66329Y-538972D01*
X66329Y-538139D01*
X67329Y-536472D01*
X73329Y-531472D01*
X74329Y-529806D01*
X74329Y-528139D01*
X73329Y-526472D01*
X71329Y-525639D01*
X69329Y-525639D01*
X67329Y-526472D01*
X66329Y-528139D01*
G54D17*
X122641Y-499378D02*
X122641Y-507378D01*
X121808Y-507378D01*
X120141Y-506378D01*
X115141Y-500378D01*
X113474Y-499378D01*
X111808Y-499378D01*
X110141Y-500378D01*
X109308Y-502378D01*
X109308Y-504378D01*
X110141Y-506378D01*
X111808Y-507378D01*
G54D17*
X122641Y-487678D02*
X122641Y-495678D01*
X121808Y-495678D01*
X120141Y-494678D01*
X115141Y-488678D01*
X113474Y-487678D01*
X111808Y-487678D01*
X110141Y-488678D01*
X109308Y-490678D01*
X109308Y-492678D01*
X110141Y-494678D01*
X111808Y-495678D01*
G54D17*
X111808Y-475978D02*
X120141Y-475978D01*
X121808Y-476978D01*
X122641Y-478978D01*
X122641Y-480978D01*
X121808Y-482978D01*
X120141Y-483978D01*
X111808Y-483978D01*
X110141Y-482978D01*
X109308Y-480978D01*
X109308Y-478978D01*
X110141Y-476978D01*
X111808Y-475978D01*
G54D17*
X122641Y-472278D02*
X115141Y-472278D01*
G54D17*
X116808Y-472278D02*
X115641Y-471278D01*
X115141Y-469278D01*
X115641Y-467278D01*
X116808Y-466278D01*
X122641Y-466278D01*
G54D17*
X200167Y-505250D02*
X195167Y-500250D01*
X208500Y-500250D01*
G54D17*
X201000Y-490550D02*
X208500Y-490550D01*
G54D17*
X206833Y-490550D02*
X208167Y-491550D01*
X208500Y-493550D01*
X208167Y-495550D01*
X206833Y-496550D01*
X201000Y-496550D01*
G54D17*
X208500Y-486850D02*
X195167Y-486850D01*
X195167Y-479850D01*
G54D17*
X201833Y-486850D02*
X201833Y-479850D01*
G54D17*
X200167Y-581750D02*
X195167Y-576750D01*
X208500Y-576750D01*
G54D17*
X201000Y-567050D02*
X208500Y-567050D01*
G54D17*
X206833Y-567050D02*
X208167Y-568050D01*
X208500Y-570050D01*
X208167Y-572050D01*
X206833Y-573050D01*
X201000Y-573050D01*
G54D17*
X208500Y-563350D02*
X195167Y-563350D01*
X195167Y-556350D01*
G54D17*
X201833Y-563350D02*
X201833Y-556350D01*
G54D17*
X371622Y-286284D02*
X376622Y-281284D01*
X376622Y-294618D01*
G54D17*
X386322Y-287118D02*
X386322Y-294618D01*
G54D17*
X386322Y-292951D02*
X385322Y-294284D01*
X383322Y-294618D01*
X381322Y-294284D01*
X380322Y-292951D01*
X380322Y-287118D01*
G54D17*
X390022Y-294618D02*
X390022Y-281284D01*
X397022Y-281284D01*
G54D17*
X390022Y-287951D02*
X397022Y-287951D01*
G54D17*
X416100Y-263517D02*
X421100Y-258517D01*
X421100Y-271850D01*
G54D17*
X430800Y-264350D02*
X430800Y-271850D01*
G54D17*
X430800Y-270183D02*
X429800Y-271517D01*
X427800Y-271850D01*
X425800Y-271517D01*
X424800Y-270183D01*
X424800Y-264350D01*
G54D17*
X434500Y-271850D02*
X434500Y-258517D01*
X441500Y-258517D01*
G54D17*
X434500Y-265183D02*
X441500Y-265183D01*
G54D17*
X334000Y-199717D02*
X339000Y-194717D01*
X339000Y-208050D01*
G54D17*
X348700Y-200550D02*
X348700Y-208050D01*
G54D17*
X348700Y-206383D02*
X347700Y-207717D01*
X345700Y-208050D01*
X343700Y-207717D01*
X342700Y-206383D01*
X342700Y-200550D01*
G54D17*
X352400Y-208050D02*
X352400Y-194717D01*
X359400Y-194717D01*
G54D17*
X352400Y-201383D02*
X359400Y-201383D01*
G54D17*
X375000Y-194717D02*
X367000Y-194717D01*
X367000Y-200550D01*
X368000Y-200550D01*
X370000Y-199717D01*
X372000Y-199717D01*
X374000Y-200550D01*
X375000Y-202217D01*
X375000Y-205550D01*
X374000Y-207217D01*
X372000Y-208050D01*
X370000Y-208050D01*
X368000Y-207217D01*
X367000Y-205550D01*
G54D17*
X386700Y-197217D02*
X386700Y-205550D01*
X385700Y-207217D01*
X383700Y-208050D01*
X381700Y-208050D01*
X379700Y-207217D01*
X378700Y-205550D01*
X378700Y-197217D01*
X379700Y-195550D01*
X381700Y-194717D01*
X383700Y-194717D01*
X385700Y-195550D01*
X386700Y-197217D01*
G54D17*
X390400Y-194717D02*
X395400Y-208050D01*
X400400Y-194717D01*
G54D17*
X375967Y-838950D02*
X370967Y-833950D01*
X384300Y-833950D01*
G54D17*
X384300Y-830250D02*
X370967Y-830250D01*
X379300Y-825250D01*
X370967Y-820250D01*
X384300Y-820250D01*
G54D17*
X413667Y-841050D02*
X408667Y-836050D01*
X422000Y-836050D01*
G54D17*
X411167Y-824350D02*
X419500Y-824350D01*
X421167Y-825350D01*
X422000Y-827350D01*
X422000Y-829350D01*
X421167Y-831350D01*
X419500Y-832350D01*
X411167Y-832350D01*
X409500Y-831350D01*
X408667Y-829350D01*
X408667Y-827350D01*
X409500Y-825350D01*
X411167Y-824350D01*
G54D17*
X422000Y-820650D02*
X408667Y-820650D01*
G54D17*
X417000Y-817650D02*
X422000Y-814650D01*
G54D17*
X418667Y-820650D02*
X414500Y-814650D01*
G54D17*
X494300Y-837350D02*
X494300Y-845350D01*
X493467Y-845350D01*
X491800Y-844350D01*
X486800Y-838350D01*
X485133Y-837350D01*
X483467Y-837350D01*
X481800Y-838350D01*
X480967Y-840350D01*
X480967Y-842350D01*
X481800Y-844350D01*
X483467Y-845350D01*
G54D17*
X491800Y-833650D02*
X493467Y-832650D01*
X494300Y-830650D01*
X494300Y-828650D01*
X493467Y-826650D01*
X491800Y-825650D01*
X490133Y-825650D01*
X488467Y-826650D01*
X487633Y-828650D01*
X487633Y-830650D01*
X486800Y-832650D01*
X485133Y-833650D01*
X483467Y-833650D01*
X481800Y-832650D01*
X480967Y-830650D01*
X480967Y-828650D01*
X481800Y-826650D01*
X483467Y-825650D01*
G54D17*
X494300Y-821950D02*
X480967Y-821950D01*
G54D17*
X490133Y-821950D02*
X480967Y-813950D01*
G54D17*
X487633Y-818950D02*
X494300Y-813950D01*
G54D17*
X485967Y-810250D02*
X480967Y-805250D01*
X494300Y-805250D01*
G54D17*
X480967Y-801550D02*
X480967Y-793550D01*
X482633Y-794550D01*
X485133Y-796550D01*
X488467Y-798550D01*
X490967Y-799550D01*
X494300Y-799550D01*
G54D17*
X483467Y-781850D02*
X491800Y-781850D01*
X493467Y-782850D01*
X494300Y-784850D01*
X494300Y-786850D01*
X493467Y-788850D01*
X491800Y-789850D01*
X483467Y-789850D01*
X481800Y-788850D01*
X480967Y-786850D01*
X480967Y-784850D01*
X481800Y-782850D01*
X483467Y-781850D01*
G54D17*
X64900Y-906950D02*
X64900Y-893617D01*
X58900Y-901950D01*
X58900Y-903617D01*
X66900Y-903617D01*
G54D17*
X70600Y-906950D02*
X70600Y-893617D01*
G54D17*
X73600Y-901950D02*
X76600Y-906950D01*
G54D17*
X70600Y-903617D02*
X76600Y-899450D01*
G54D17*
X80300Y-893617D02*
X88300Y-893617D01*
X87300Y-895283D01*
X85300Y-897783D01*
X83300Y-901117D01*
X82300Y-903617D01*
X82300Y-906950D01*
G54D17*
X-36733Y-848750D02*
X-41733Y-843750D01*
X-28400Y-843750D01*
G54D17*
X-28400Y-840050D02*
X-35900Y-840050D01*
G54D17*
X-34233Y-840050D02*
X-35400Y-839050D01*
X-35900Y-837050D01*
X-35400Y-835050D01*
X-34233Y-834050D01*
X-28400Y-834050D01*
G54D17*
X-28400Y-824350D02*
X-41733Y-824350D01*
X-33400Y-830350D01*
X-31733Y-830350D01*
X-31733Y-822350D01*
G54D17*
X-39233Y-810650D02*
X-30900Y-810650D01*
X-29233Y-811650D01*
X-28400Y-813650D01*
X-28400Y-815650D01*
X-29233Y-817650D01*
X-30900Y-818650D01*
X-39233Y-818650D01*
X-40900Y-817650D01*
X-41733Y-815650D01*
X-41733Y-813650D01*
X-40900Y-811650D01*
X-39233Y-810650D01*
G54D17*
X-39233Y-798950D02*
X-30900Y-798950D01*
X-29233Y-799950D01*
X-28400Y-801950D01*
X-28400Y-803950D01*
X-29233Y-805950D01*
X-30900Y-806950D01*
X-39233Y-806950D01*
X-40900Y-805950D01*
X-41733Y-803950D01*
X-41733Y-801950D01*
X-40900Y-799950D01*
X-39233Y-798950D01*
G54D17*
X-41733Y-795250D02*
X-41733Y-787250D01*
X-40067Y-788250D01*
X-37567Y-790250D01*
X-34233Y-792250D01*
X-31733Y-793250D01*
X-28400Y-793250D01*
G54D17*
X80767Y-817050D02*
X89100Y-817050D01*
X90767Y-818050D01*
X91600Y-820050D01*
X91600Y-822050D01*
X90767Y-824050D01*
X89100Y-825050D01*
X80767Y-825050D01*
X79100Y-824050D01*
X78267Y-822050D01*
X78267Y-820050D01*
X79100Y-818050D01*
X80767Y-817050D01*
G54D17*
X84933Y-809350D02*
X86600Y-806350D01*
X88267Y-805350D01*
X91600Y-805350D01*
G54D17*
X91600Y-813350D02*
X78267Y-813350D01*
X78267Y-808350D01*
X79100Y-806350D01*
X80767Y-805350D01*
X82433Y-805350D01*
X84100Y-806350D01*
X84933Y-808350D01*
X84933Y-813350D01*
G54D17*
X160267Y3350D02*
X168600Y3350D01*
X170267Y2350D01*
X171100Y350D01*
X171100Y-1650D01*
X170267Y-3650D01*
X168600Y-4650D01*
X160267Y-4650D01*
X158600Y-3650D01*
X157767Y-1650D01*
X157767Y350D01*
X158600Y2350D01*
X160267Y3350D01*
G54D17*
X164433Y11050D02*
X166100Y14050D01*
X167767Y15050D01*
X171100Y15050D01*
G54D17*
X171100Y7050D02*
X157767Y7050D01*
X157767Y12050D01*
X158600Y14050D01*
X160267Y15050D01*
X161933Y15050D01*
X163600Y14050D01*
X164433Y12050D01*
X164433Y7050D01*
G54D17*
X31300Y-47617D02*
X36300Y-42617D01*
X36300Y-55950D01*
G54D17*
X48000Y-45117D02*
X48000Y-53450D01*
X47000Y-55117D01*
X45000Y-55950D01*
X43000Y-55950D01*
X41000Y-55117D01*
X40000Y-53450D01*
X40000Y-45117D01*
X41000Y-43450D01*
X43000Y-42617D01*
X45000Y-42617D01*
X47000Y-43450D01*
X48000Y-45117D01*
G54D17*
X57700Y-48450D02*
X57700Y-55950D01*
G54D17*
X57700Y-54283D02*
X56700Y-55617D01*
X54700Y-55950D01*
X52700Y-55617D01*
X51700Y-54283D01*
X51700Y-48450D01*
G54D17*
X61400Y-55950D02*
X61400Y-42617D01*
X68400Y-42617D01*
G54D17*
X61400Y-49283D02*
X68400Y-49283D01*
G54D17*
X84000Y-42617D02*
X76000Y-42617D01*
X76000Y-48450D01*
X77000Y-48450D01*
X79000Y-47617D01*
X81000Y-47617D01*
X83000Y-48450D01*
X84000Y-50117D01*
X84000Y-53450D01*
X83000Y-55117D01*
X81000Y-55950D01*
X79000Y-55950D01*
X77000Y-55117D01*
X76000Y-53450D01*
G54D17*
X95700Y-45117D02*
X95700Y-53450D01*
X94700Y-55117D01*
X92700Y-55950D01*
X90700Y-55950D01*
X88700Y-55117D01*
X87700Y-53450D01*
X87700Y-45117D01*
X88700Y-43450D01*
X90700Y-42617D01*
X92700Y-42617D01*
X94700Y-43450D01*
X95700Y-45117D01*
G54D17*
X99400Y-42617D02*
X104400Y-55950D01*
X109400Y-42617D01*
G54D17*
X50100Y-72617D02*
X55100Y-67617D01*
X55100Y-80950D01*
G54D17*
X66800Y-70117D02*
X66800Y-78450D01*
X65800Y-80117D01*
X63800Y-80950D01*
X61800Y-80950D01*
X59800Y-80117D01*
X58800Y-78450D01*
X58800Y-70117D01*
X59800Y-68450D01*
X61800Y-67617D01*
X63800Y-67617D01*
X65800Y-68450D01*
X66800Y-70117D01*
G54D17*
X78500Y-70117D02*
X78500Y-78450D01*
X77500Y-80117D01*
X75500Y-80950D01*
X73500Y-80950D01*
X71500Y-80117D01*
X70500Y-78450D01*
X70500Y-70117D01*
X71500Y-68450D01*
X73500Y-67617D01*
X75500Y-67617D01*
X77500Y-68450D01*
X78500Y-70117D01*
G54D17*
X88200Y-73450D02*
X88200Y-80950D01*
G54D17*
X88200Y-79283D02*
X87200Y-80617D01*
X85200Y-80950D01*
X83200Y-80617D01*
X82200Y-79283D01*
X82200Y-73450D01*
G54D17*
X91900Y-80950D02*
X91900Y-67617D01*
X98900Y-67617D01*
G54D17*
X91900Y-74283D02*
X98900Y-74283D01*
G54D17*
X114500Y-80950D02*
X106500Y-80950D01*
X106500Y-80117D01*
X107500Y-78450D01*
X113500Y-73450D01*
X114500Y-71783D01*
X114500Y-70117D01*
X113500Y-68450D01*
X111500Y-67617D01*
X109500Y-67617D01*
X107500Y-68450D01*
X106500Y-70117D01*
G54D17*
X126200Y-67617D02*
X118200Y-67617D01*
X118200Y-73450D01*
X119200Y-73450D01*
X121200Y-72617D01*
X123200Y-72617D01*
X125200Y-73450D01*
X126200Y-75117D01*
X126200Y-78450D01*
X125200Y-80117D01*
X123200Y-80950D01*
X121200Y-80950D01*
X119200Y-80117D01*
X118200Y-78450D01*
G54D17*
X129900Y-67617D02*
X134900Y-80950D01*
X139900Y-67617D01*
G54D17*
X187400Y-159117D02*
X192400Y-154117D01*
X192400Y-167450D01*
G54D17*
X204100Y-156617D02*
X204100Y-164950D01*
X203100Y-166617D01*
X201100Y-167450D01*
X199100Y-167450D01*
X197100Y-166617D01*
X196100Y-164950D01*
X196100Y-156617D01*
X197100Y-154950D01*
X199100Y-154117D01*
X201100Y-154117D01*
X203100Y-154950D01*
X204100Y-156617D01*
G54D17*
X215800Y-156617D02*
X215800Y-164950D01*
X214800Y-166617D01*
X212800Y-167450D01*
X210800Y-167450D01*
X208800Y-166617D01*
X207800Y-164950D01*
X207800Y-156617D01*
X208800Y-154950D01*
X210800Y-154117D01*
X212800Y-154117D01*
X214800Y-154950D01*
X215800Y-156617D01*
G54D17*
X225500Y-159950D02*
X225500Y-167450D01*
G54D17*
X225500Y-165783D02*
X224500Y-167117D01*
X222500Y-167450D01*
X220500Y-167117D01*
X219500Y-165783D01*
X219500Y-159950D01*
G54D17*
X229200Y-167450D02*
X229200Y-154117D01*
X236200Y-154117D01*
G54D17*
X229200Y-160783D02*
X236200Y-160783D01*
G54D17*
X243800Y-159117D02*
X248800Y-154117D01*
X248800Y-167450D01*
G54D17*
X260500Y-156617D02*
X259500Y-154950D01*
X257500Y-154117D01*
X255500Y-154117D01*
X253500Y-154950D01*
X252500Y-156617D01*
X252500Y-160783D01*
X252500Y-161617D01*
X255500Y-159950D01*
X257500Y-159950D01*
X259500Y-160783D01*
X260500Y-162450D01*
X260500Y-164950D01*
X259500Y-166617D01*
X257500Y-167450D01*
X255500Y-167450D01*
X253500Y-166617D01*
X252500Y-164950D01*
X252500Y-160783D01*
G54D17*
X264200Y-154117D02*
X269200Y-167450D01*
X274200Y-154117D01*
G54D17*
X202100Y-138250D02*
X202100Y-124917D01*
X196100Y-133250D01*
X196100Y-134917D01*
X204100Y-134917D01*
G54D17*
X207800Y-124917D02*
X215800Y-124917D01*
X214800Y-126583D01*
X212800Y-129083D01*
X210800Y-132417D01*
X209800Y-134917D01*
X209800Y-138250D01*
G54D17*
X219500Y-130750D02*
X219500Y-141583D01*
G54D17*
X219500Y-135750D02*
X220500Y-137917D01*
X222500Y-138250D01*
X224500Y-137917D01*
X225500Y-136250D01*
X225500Y-132917D01*
X224500Y-131250D01*
X222500Y-130750D01*
X220500Y-131250D01*
X219500Y-133250D01*
G54D17*
X477000Y-91350D02*
X477000Y-99350D01*
X476167Y-99350D01*
X474500Y-98350D01*
X469500Y-92350D01*
X467833Y-91350D01*
X466167Y-91350D01*
X464500Y-92350D01*
X463667Y-94350D01*
X463667Y-96350D01*
X464500Y-98350D01*
X466167Y-99350D01*
G54D17*
X477000Y-79650D02*
X477000Y-87650D01*
X476167Y-87650D01*
X474500Y-86650D01*
X469500Y-80650D01*
X467833Y-79650D01*
X466167Y-79650D01*
X464500Y-80650D01*
X463667Y-82650D01*
X463667Y-84650D01*
X464500Y-86650D01*
X466167Y-87650D01*
G54D17*
X477000Y-75950D02*
X463667Y-75950D01*
G54D17*
X472000Y-72950D02*
X477000Y-69950D01*
G54D17*
X473667Y-75950D02*
X469500Y-69950D01*
G54D17*
X447000Y-90750D02*
X447000Y-98750D01*
X446167Y-98750D01*
X444500Y-97750D01*
X439500Y-91750D01*
X437833Y-90750D01*
X436167Y-90750D01*
X434500Y-91750D01*
X433667Y-93750D01*
X433667Y-95750D01*
X434500Y-97750D01*
X436167Y-98750D01*
G54D17*
X447000Y-79050D02*
X447000Y-87050D01*
X446167Y-87050D01*
X444500Y-86050D01*
X439500Y-80050D01*
X437833Y-79050D01*
X436167Y-79050D01*
X434500Y-80050D01*
X433667Y-82050D01*
X433667Y-84050D01*
X434500Y-86050D01*
X436167Y-87050D01*
G54D17*
X447000Y-75350D02*
X433667Y-75350D01*
G54D17*
X442000Y-72350D02*
X447000Y-69350D01*
G54D17*
X443667Y-75350D02*
X439500Y-69350D01*
G54D17*
X402100Y-90750D02*
X402100Y-98750D01*
X401267Y-98750D01*
X399600Y-97750D01*
X394600Y-91750D01*
X392933Y-90750D01*
X391267Y-90750D01*
X389600Y-91750D01*
X388767Y-93750D01*
X388767Y-95750D01*
X389600Y-97750D01*
X391267Y-98750D01*
G54D17*
X402100Y-79050D02*
X402100Y-87050D01*
X401267Y-87050D01*
X399600Y-86050D01*
X394600Y-80050D01*
X392933Y-79050D01*
X391267Y-79050D01*
X389600Y-80050D01*
X388767Y-82050D01*
X388767Y-84050D01*
X389600Y-86050D01*
X391267Y-87050D01*
G54D17*
X402100Y-75350D02*
X388767Y-75350D01*
G54D17*
X397100Y-72350D02*
X402100Y-69350D01*
G54D17*
X398767Y-75350D02*
X394600Y-69350D01*
G54D17*
X371100Y-91050D02*
X371100Y-99050D01*
X370267Y-99050D01*
X368600Y-98050D01*
X363600Y-92050D01*
X361933Y-91050D01*
X360267Y-91050D01*
X358600Y-92050D01*
X357767Y-94050D01*
X357767Y-96050D01*
X358600Y-98050D01*
X360267Y-99050D01*
G54D17*
X371100Y-79350D02*
X371100Y-87350D01*
X370267Y-87350D01*
X368600Y-86350D01*
X363600Y-80350D01*
X361933Y-79350D01*
X360267Y-79350D01*
X358600Y-80350D01*
X357767Y-82350D01*
X357767Y-84350D01*
X358600Y-86350D01*
X360267Y-87350D01*
G54D17*
X371100Y-75650D02*
X357767Y-75650D01*
G54D17*
X366100Y-72650D02*
X371100Y-69650D01*
G54D17*
X367767Y-75650D02*
X363600Y-69650D01*
G54D17*
X324067Y-154550D02*
X319067Y-149550D01*
X332400Y-149550D01*
G54D17*
X332400Y-145850D02*
X319067Y-145850D01*
X327400Y-140850D01*
X319067Y-135850D01*
X332400Y-135850D01*
G54D17*
X286367Y-214250D02*
X281367Y-209250D01*
X294700Y-209250D01*
G54D17*
X294700Y-205550D02*
X281367Y-205550D01*
G54D17*
X289700Y-202550D02*
X294700Y-199550D01*
G54D17*
X291367Y-205550D02*
X287200Y-199550D01*
G54D17*
X209267Y-388350D02*
X204267Y-383350D01*
X217600Y-383350D01*
G54D17*
X206767Y-371650D02*
X215100Y-371650D01*
X216767Y-372650D01*
X217600Y-374650D01*
X217600Y-376650D01*
X216767Y-378650D01*
X215100Y-379650D01*
X206767Y-379650D01*
X205100Y-378650D01*
X204267Y-376650D01*
X204267Y-374650D01*
X205100Y-372650D01*
X206767Y-371650D01*
G54D17*
X206767Y-359950D02*
X215100Y-359950D01*
X216767Y-360950D01*
X217600Y-362950D01*
X217600Y-364950D01*
X216767Y-366950D01*
X215100Y-367950D01*
X206767Y-367950D01*
X205100Y-366950D01*
X204267Y-364950D01*
X204267Y-362950D01*
X205100Y-360950D01*
X206767Y-359950D01*
G54D17*
X217600Y-356250D02*
X204267Y-356250D01*
G54D17*
X212600Y-353250D02*
X217600Y-350250D01*
G54D17*
X214267Y-356250D02*
X210100Y-350250D01*
G54D17*
X12467Y-252050D02*
X7467Y-247050D01*
X20800Y-247050D01*
G54D17*
X20800Y-243350D02*
X7467Y-243350D01*
X15800Y-238350D01*
X7467Y-233350D01*
X20800Y-233350D01*
G54D17*
X84400Y-171750D02*
X76400Y-171750D01*
X76400Y-170917D01*
X77400Y-169250D01*
X83400Y-164250D01*
X84400Y-162583D01*
X84400Y-160917D01*
X83400Y-159250D01*
X81400Y-158417D01*
X79400Y-158417D01*
X77400Y-159250D01*
X76400Y-160917D01*
G54D17*
X96100Y-160917D02*
X96100Y-169250D01*
X95100Y-170917D01*
X93100Y-171750D01*
X91100Y-171750D01*
X89100Y-170917D01*
X88100Y-169250D01*
X88100Y-160917D01*
X89100Y-159250D01*
X91100Y-158417D01*
X93100Y-158417D01*
X95100Y-159250D01*
X96100Y-160917D01*
G54D17*
X99800Y-171750D02*
X99800Y-158417D01*
G54D17*
X102800Y-166750D02*
X105800Y-171750D01*
G54D17*
X99800Y-168417D02*
X105800Y-164250D01*
G54D17*
X47500Y-142450D02*
X39500Y-142450D01*
X39500Y-141617D01*
X40500Y-139950D01*
X46500Y-134950D01*
X47500Y-133283D01*
X47500Y-131617D01*
X46500Y-129950D01*
X44500Y-129117D01*
X42500Y-129117D01*
X40500Y-129950D01*
X39500Y-131617D01*
G54D17*
X59200Y-131617D02*
X59200Y-139950D01*
X58200Y-141617D01*
X56200Y-142450D01*
X54200Y-142450D01*
X52200Y-141617D01*
X51200Y-139950D01*
X51200Y-131617D01*
X52200Y-129950D01*
X54200Y-129117D01*
X56200Y-129117D01*
X58200Y-129950D01*
X59200Y-131617D01*
G54D17*
X62900Y-142450D02*
X62900Y-129117D01*
G54D17*
X65900Y-137450D02*
X68900Y-142450D01*
G54D17*
X62900Y-139117D02*
X68900Y-134950D01*
G54D17*
X46800Y-105250D02*
X38800Y-105250D01*
X38800Y-104417D01*
X39800Y-102750D01*
X45800Y-97750D01*
X46800Y-96083D01*
X46800Y-94417D01*
X45800Y-92750D01*
X43800Y-91917D01*
X41800Y-91917D01*
X39800Y-92750D01*
X38800Y-94417D01*
G54D17*
X58500Y-94417D02*
X58500Y-102750D01*
X57500Y-104417D01*
X55500Y-105250D01*
X53500Y-105250D01*
X51500Y-104417D01*
X50500Y-102750D01*
X50500Y-94417D01*
X51500Y-92750D01*
X53500Y-91917D01*
X55500Y-91917D01*
X57500Y-92750D01*
X58500Y-94417D01*
G54D17*
X62200Y-105250D02*
X62200Y-91917D01*
G54D17*
X65200Y-100250D02*
X68200Y-105250D01*
G54D17*
X62200Y-101917D02*
X68200Y-97750D01*
G54D17*
X177400Y-264750D02*
X177400Y-272750D01*
X176567Y-272750D01*
X174900Y-271750D01*
X169900Y-265750D01*
X168233Y-264750D01*
X166567Y-264750D01*
X164900Y-265750D01*
X164067Y-267750D01*
X164067Y-269750D01*
X164900Y-271750D01*
X166567Y-272750D01*
G54D17*
X166567Y-253050D02*
X174900Y-253050D01*
X176567Y-254050D01*
X177400Y-256050D01*
X177400Y-258050D01*
X176567Y-260050D01*
X174900Y-261050D01*
X166567Y-261050D01*
X164900Y-260050D01*
X164067Y-258050D01*
X164067Y-256050D01*
X164900Y-254050D01*
X166567Y-253050D01*
G54D17*
X177400Y-249350D02*
X164067Y-249350D01*
G54D17*
X172400Y-246350D02*
X177400Y-243350D01*
G54D17*
X174067Y-249350D02*
X169900Y-243350D01*
G54D17*
X62300Y-246750D02*
X62300Y-233417D01*
X56300Y-241750D01*
X56300Y-243417D01*
X64300Y-243417D01*
G54D17*
X76000Y-233417D02*
X68000Y-233417D01*
X68000Y-239250D01*
X69000Y-239250D01*
X71000Y-238417D01*
X73000Y-238417D01*
X75000Y-239250D01*
X76000Y-240917D01*
X76000Y-244250D01*
X75000Y-245917D01*
X73000Y-246750D01*
X71000Y-246750D01*
X69000Y-245917D01*
X68000Y-244250D01*
G54D17*
X87700Y-233417D02*
X79700Y-233417D01*
X79700Y-239250D01*
X80700Y-239250D01*
X82700Y-238417D01*
X84700Y-238417D01*
X86700Y-239250D01*
X87700Y-240917D01*
X87700Y-244250D01*
X86700Y-245917D01*
X84700Y-246750D01*
X82700Y-246750D01*
X80700Y-245917D01*
X79700Y-244250D01*
G54D17*
X96400Y-240083D02*
X94400Y-240083D01*
X92400Y-239250D01*
X91400Y-237583D01*
X91400Y-235917D01*
X92400Y-234250D01*
X94400Y-233417D01*
X96400Y-233417D01*
X98400Y-234250D01*
X99400Y-235917D01*
X99400Y-237583D01*
X98400Y-239250D01*
X96400Y-240083D01*
X98400Y-240917D01*
X99400Y-242583D01*
X99400Y-244250D01*
X98400Y-245917D01*
X96400Y-246750D01*
X94400Y-246750D01*
X92400Y-245917D01*
X91400Y-244250D01*
X91400Y-242583D01*
X92400Y-240917D01*
X94400Y-240083D01*
G54D17*
X231800Y-105317D02*
X236800Y-100317D01*
X236800Y-113650D01*
G54D17*
X248500Y-102817D02*
X248500Y-111150D01*
X247500Y-112817D01*
X245500Y-113650D01*
X243500Y-113650D01*
X241500Y-112817D01*
X240500Y-111150D01*
X240500Y-102817D01*
X241500Y-101150D01*
X243500Y-100317D01*
X245500Y-100317D01*
X247500Y-101150D01*
X248500Y-102817D01*
G54D17*
X260200Y-102817D02*
X260200Y-111150D01*
X259200Y-112817D01*
X257200Y-113650D01*
X255200Y-113650D01*
X253200Y-112817D01*
X252200Y-111150D01*
X252200Y-102817D01*
X253200Y-101150D01*
X255200Y-100317D01*
X257200Y-100317D01*
X259200Y-101150D01*
X260200Y-102817D01*
G54D17*
X263900Y-113650D02*
X263900Y-100317D01*
G54D17*
X266900Y-108650D02*
X269900Y-113650D01*
G54D17*
X263900Y-110317D02*
X269900Y-106150D01*
G54D17*
X258300Y-58750D02*
X244967Y-58750D01*
G54D17*
X244967Y-62750D02*
X244967Y-54750D01*
G54D17*
X244967Y-51050D02*
X258300Y-51050D01*
X258300Y-44050D01*
G54D17*
X247467Y-32350D02*
X255800Y-32350D01*
X257467Y-33350D01*
X258300Y-35350D01*
X258300Y-37350D01*
X257467Y-39350D01*
X255800Y-40350D01*
X247467Y-40350D01*
X245800Y-39350D01*
X244967Y-37350D01*
X244967Y-35350D01*
X245800Y-33350D01*
X247467Y-32350D01*
G54D17*
X244967Y-28650D02*
X244967Y-20650D01*
X246633Y-21650D01*
X249133Y-23650D01*
X252467Y-25650D01*
X254967Y-26650D01*
X258300Y-26650D01*
G54D17*
X249967Y-16950D02*
X244967Y-11950D01*
X258300Y-11950D01*
G54D17*
X368626Y26857D02*
X368626Y40190D01*
X373626Y40190D01*
X375626Y39357D01*
X376626Y37690D01*
X376626Y36024D01*
X375626Y34357D01*
X373626Y33524D01*
X375626Y32690D01*
X376626Y31024D01*
X376626Y29357D01*
X375626Y27690D01*
X373626Y26857D01*
X368626Y26857D01*
G54D17*
X368626Y33524D02*
X373626Y33524D01*
G54D17*
X380326Y35190D02*
X385326Y40190D01*
X385326Y26857D01*
G54D17*
X397026Y37690D02*
X397026Y29357D01*
X396026Y27690D01*
X394026Y26857D01*
X392026Y26857D01*
X390026Y27690D01*
X389026Y29357D01*
X389026Y37690D01*
X390026Y39357D01*
X392026Y40190D01*
X394026Y40190D01*
X396026Y39357D01*
X397026Y37690D01*
G54D17*
X400726Y26857D02*
X400726Y40190D01*
G54D17*
X403726Y31857D02*
X406726Y26857D01*
G54D17*
X400726Y30190D02*
X406726Y34357D01*
G54D17*
X24804Y28339D02*
X29804Y41673D01*
X34804Y28339D01*
G54D17*
X26804Y33339D02*
X32804Y33339D01*
G54D17*
X38504Y36673D02*
X43504Y41673D01*
X43504Y28339D01*
G54D17*
X55204Y39173D02*
X55204Y30839D01*
X54204Y29173D01*
X52204Y28339D01*
X50204Y28339D01*
X48204Y29173D01*
X47204Y30839D01*
X47204Y39173D01*
X48204Y40839D01*
X50204Y41673D01*
X52204Y41673D01*
X54204Y40839D01*
X55204Y39173D01*
G54D17*
X66904Y39173D02*
X66904Y30839D01*
X65904Y29173D01*
X63904Y28339D01*
X61904Y28339D01*
X59904Y29173D01*
X58904Y30839D01*
X58904Y39173D01*
X59904Y40839D01*
X61904Y41673D01*
X63904Y41673D01*
X65904Y40839D01*
X66904Y39173D01*
G54D17*
X70604Y28339D02*
X70604Y41673D01*
G54D17*
X73604Y33339D02*
X76604Y28339D01*
G54D17*
X70604Y31673D02*
X76604Y35839D01*
G54D17*
X180676Y18530D02*
X188676Y18530D01*
G54D17*
X184676Y21863D02*
X184676Y15196D01*
G54D17*
X192376Y15196D02*
X193376Y13530D01*
X195376Y12696D01*
X197376Y12696D01*
X199376Y13530D01*
X200376Y15196D01*
X200376Y19363D01*
X200376Y20196D01*
X197376Y18530D01*
X195376Y18530D01*
X193376Y19363D01*
X192376Y21030D01*
X192376Y23530D01*
X193376Y25196D01*
X195376Y26030D01*
X197376Y26030D01*
X199376Y25196D01*
X200376Y23530D01*
X200376Y19363D01*
G54D17*
X204076Y26030D02*
X209076Y12696D01*
X214076Y26030D01*
G54D17*
X232400Y17517D02*
X236400Y17517D01*
X236400Y13350D01*
X235400Y11683D01*
X233400Y10850D01*
X231400Y10850D01*
X229400Y11683D01*
X228400Y13350D01*
X228400Y21683D01*
X229400Y23350D01*
X231400Y24183D01*
X233400Y24183D01*
X235400Y23350D01*
X236400Y21683D01*
G54D17*
X240100Y10850D02*
X240100Y24183D01*
X248100Y10850D01*
X248100Y24183D01*
G54D17*
X251800Y10850D02*
X251800Y24183D01*
X256800Y24183D01*
X258800Y23350D01*
X259800Y21683D01*
X259800Y13350D01*
X258800Y11683D01*
X256800Y10850D01*
X251800Y10850D01*
G54D17*
X208900Y-737183D02*
X212900Y-737183D01*
X212900Y-741350D01*
X211900Y-743017D01*
X209900Y-743850D01*
X207900Y-743850D01*
X205900Y-743017D01*
X204900Y-741350D01*
X204900Y-733017D01*
X205900Y-731350D01*
X207900Y-730517D01*
X209900Y-730517D01*
X211900Y-731350D01*
X212900Y-733017D01*
G54D17*
X216600Y-743850D02*
X216600Y-730517D01*
X224600Y-743850D01*
X224600Y-730517D01*
G54D17*
X228300Y-743850D02*
X228300Y-730517D01*
X233300Y-730517D01*
X235300Y-731350D01*
X236300Y-733017D01*
X236300Y-741350D01*
X235300Y-743017D01*
X233300Y-743850D01*
X228300Y-743850D01*
M02*
