%FSLAX34Y34*%
%MOMM*%
%LNSOLDERMASK_BOTTOM*%
G71*
G01*
%ADD10C, 4.090*%
%ADD11C, 2.800*%
%ADD12C, 2.740*%
%ADD13C, 2.600*%
%ADD14C, 2.820*%
%ADD15C, 3.800*%
%ADD16C, 2.520*%
%ADD17C, 3.160*%
%ADD18C, 3.160*%
%ADD19C, 3.000*%
%LPD*%
X426200Y-735950D02*
G54D10*
D03*
X363200Y-735950D02*
G54D10*
D03*
X300200Y-735950D02*
G54D10*
D03*
X300200Y-573950D02*
G54D10*
D03*
X363200Y-573950D02*
G54D10*
D03*
X426200Y-573950D02*
G54D10*
D03*
G36*
X203700Y-845858D02*
X215108Y-834450D01*
X231292Y-834450D01*
X242700Y-845858D01*
X242700Y-862042D01*
X231292Y-873450D01*
X215108Y-873450D01*
X203700Y-862042D01*
X203700Y-845858D01*
G37*
G36*
X151700Y-845858D02*
X163108Y-834450D01*
X179292Y-834450D01*
X190700Y-845858D01*
X190700Y-862042D01*
X179292Y-873450D01*
X163108Y-873450D01*
X151700Y-862042D01*
X151700Y-845858D01*
G37*
G36*
X255700Y-845858D02*
X267108Y-834450D01*
X283292Y-834450D01*
X294700Y-845858D01*
X294700Y-862042D01*
X283292Y-873450D01*
X267108Y-873450D01*
X255700Y-862042D01*
X255700Y-845858D01*
G37*
G36*
X255700Y-891858D02*
X267108Y-880450D01*
X283292Y-880450D01*
X294700Y-891858D01*
X294700Y-908042D01*
X283292Y-919450D01*
X267108Y-919450D01*
X255700Y-908042D01*
X255700Y-891858D01*
G37*
G36*
X203700Y-891858D02*
X215108Y-880450D01*
X231292Y-880450D01*
X242700Y-891858D01*
X242700Y-908042D01*
X231292Y-919450D01*
X215108Y-919450D01*
X203700Y-908042D01*
X203700Y-891858D01*
G37*
G36*
X151700Y-891858D02*
X163108Y-880450D01*
X179292Y-880450D01*
X190700Y-891858D01*
X190700Y-908042D01*
X179292Y-919450D01*
X163108Y-919450D01*
X151700Y-908042D01*
X151700Y-891858D01*
G37*
G36*
X255700Y-799858D02*
X267108Y-788450D01*
X283292Y-788450D01*
X294700Y-799858D01*
X294700Y-816042D01*
X283292Y-827450D01*
X267108Y-827450D01*
X255700Y-816042D01*
X255700Y-799858D01*
G37*
G36*
X203700Y-799858D02*
X215108Y-788450D01*
X231292Y-788450D01*
X242700Y-799858D01*
X242700Y-816042D01*
X231292Y-827450D01*
X215108Y-827450D01*
X203700Y-816042D01*
X203700Y-799858D01*
G37*
G36*
X151700Y-799858D02*
X163108Y-788450D01*
X179292Y-788450D01*
X190700Y-799858D01*
X190700Y-816042D01*
X179292Y-827450D01*
X163108Y-827450D01*
X151700Y-816042D01*
X151700Y-799858D01*
G37*
X20200Y-573950D02*
G54D10*
D03*
X83200Y-573950D02*
G54D10*
D03*
X146200Y-573950D02*
G54D10*
D03*
X146200Y-735950D02*
G54D10*
D03*
X83200Y-735950D02*
G54D10*
D03*
X20200Y-735950D02*
G54D10*
D03*
X426200Y-493950D02*
G54D10*
D03*
X363200Y-493950D02*
G54D10*
D03*
X300200Y-493950D02*
G54D10*
D03*
X300200Y-331950D02*
G54D10*
D03*
X363200Y-331950D02*
G54D10*
D03*
X426200Y-331950D02*
G54D10*
D03*
X20200Y-331950D02*
G54D10*
D03*
X83200Y-331950D02*
G54D10*
D03*
X146200Y-331950D02*
G54D10*
D03*
X146200Y-493950D02*
G54D10*
D03*
X83200Y-493950D02*
G54D10*
D03*
X20200Y-493950D02*
G54D10*
D03*
X36200Y-832950D02*
G54D11*
D03*
X36200Y-807550D02*
G54D11*
D03*
X35900Y-900950D02*
G54D12*
D03*
X110900Y-900950D02*
G54D12*
D03*
X35900Y-900950D02*
G54D12*
D03*
X110900Y-900950D02*
G54D12*
D03*
X456700Y-789950D02*
G54D13*
D03*
X456700Y-839950D02*
G54D13*
D03*
X456700Y-814950D02*
G54D13*
D03*
X339200Y-900950D02*
G54D13*
D03*
X389200Y-900950D02*
G54D13*
D03*
X339200Y-789950D02*
G54D12*
D03*
X339200Y-864950D02*
G54D12*
D03*
X339200Y-789950D02*
G54D12*
D03*
X339200Y-864950D02*
G54D12*
D03*
X83800Y-778650D02*
G54D12*
D03*
X83800Y-853650D02*
G54D12*
D03*
X83800Y-778650D02*
G54D12*
D03*
X83800Y-853650D02*
G54D12*
D03*
X177200Y-533950D02*
G54D13*
D03*
X127200Y-533950D02*
G54D13*
D03*
X20200Y-533950D02*
G54D12*
D03*
X95200Y-533950D02*
G54D12*
D03*
X20200Y-533950D02*
G54D12*
D03*
X95200Y-533950D02*
G54D12*
D03*
X238973Y-133150D02*
G54D13*
D03*
X288973Y-133150D02*
G54D13*
D03*
G36*
X13708Y25550D02*
X25700Y13558D01*
X25700Y-3458D01*
X13708Y-15450D01*
X-3308Y-15450D01*
X-15300Y-3458D01*
X-15300Y13558D01*
X-3308Y25550D01*
X13708Y25550D01*
G37*
G36*
X63708Y25550D02*
X75700Y13558D01*
X75700Y-3458D01*
X63708Y-15450D01*
X46692Y-15450D01*
X34700Y-3458D01*
X34700Y13558D01*
X46692Y25550D01*
X63708Y25550D01*
G37*
G36*
X113708Y25550D02*
X125700Y13558D01*
X125700Y-3458D01*
X113708Y-15450D01*
X96692Y-15450D01*
X84700Y-3458D01*
X84700Y13558D01*
X96692Y25550D01*
X113708Y25550D01*
G37*
G36*
X349708Y25550D02*
X361700Y13558D01*
X361700Y-3458D01*
X349708Y-15450D01*
X332692Y-15450D01*
X320700Y-3458D01*
X320700Y13558D01*
X332692Y25550D01*
X349708Y25550D01*
G37*
G36*
X399708Y25550D02*
X411700Y13558D01*
X411700Y-3458D01*
X399708Y-15450D01*
X382692Y-15450D01*
X370700Y-3458D01*
X370700Y13558D01*
X382692Y25550D01*
X399708Y25550D01*
G37*
G36*
X449708Y25550D02*
X461700Y13558D01*
X461700Y-3458D01*
X449708Y-15450D01*
X432692Y-15450D01*
X420700Y-3458D01*
X420700Y13558D01*
X432692Y25550D01*
X449708Y25550D01*
G37*
X471200Y-47950D02*
G54D12*
D03*
X471200Y-122950D02*
G54D12*
D03*
X471200Y-47950D02*
G54D12*
D03*
X471200Y-122950D02*
G54D12*
D03*
X101200Y-202950D02*
G54D13*
D03*
X101200Y-277950D02*
G54D13*
D03*
X76200Y-277950D02*
G54D13*
D03*
X51200Y-277950D02*
G54D13*
D03*
X126200Y-277950D02*
G54D13*
D03*
X76200Y-202950D02*
G54D13*
D03*
X51200Y-202950D02*
G54D13*
D03*
G36*
X113200Y-215950D02*
X113200Y-189950D01*
X139200Y-189950D01*
X139200Y-215950D01*
X113200Y-215950D01*
G37*
X15200Y-277950D02*
G54D12*
D03*
X15200Y-202950D02*
G54D12*
D03*
X15200Y-277950D02*
G54D12*
D03*
X15200Y-202950D02*
G54D12*
D03*
X51541Y-166491D02*
G54D12*
D03*
X126541Y-166491D02*
G54D12*
D03*
X51541Y-166491D02*
G54D12*
D03*
X126541Y-166491D02*
G54D12*
D03*
X-11800Y-806950D02*
G54D14*
D03*
X-11800Y-856950D02*
G54D14*
D03*
X171300Y-297550D02*
G54D12*
D03*
X171300Y-222550D02*
G54D12*
D03*
X171300Y-297550D02*
G54D12*
D03*
X171300Y-222550D02*
G54D12*
D03*
X223200Y-242950D02*
G54D15*
D03*
X223200Y-192950D02*
G54D15*
D03*
X223200Y-292950D02*
G54D15*
D03*
X211200Y-406950D02*
G54D12*
D03*
X211200Y-331950D02*
G54D12*
D03*
X211200Y-406950D02*
G54D12*
D03*
X211200Y-331950D02*
G54D12*
D03*
X355708Y-288021D02*
G54D13*
D03*
X305708Y-288021D02*
G54D13*
D03*
X214200Y-106950D02*
G54D12*
D03*
X289200Y-106950D02*
G54D12*
D03*
X214200Y-106950D02*
G54D12*
D03*
X289200Y-106950D02*
G54D12*
D03*
X228200Y-469950D02*
G54D13*
D03*
X228200Y-519950D02*
G54D13*
D03*
X378200Y-789950D02*
G54D12*
D03*
X378200Y-864950D02*
G54D12*
D03*
X378200Y-789950D02*
G54D12*
D03*
X378200Y-864950D02*
G54D12*
D03*
X441200Y-48950D02*
G54D12*
D03*
X441200Y-123950D02*
G54D12*
D03*
X441200Y-48950D02*
G54D12*
D03*
X441200Y-123950D02*
G54D12*
D03*
X396000Y-48950D02*
G54D12*
D03*
X396000Y-123950D02*
G54D12*
D03*
X396000Y-48950D02*
G54D12*
D03*
X396000Y-123950D02*
G54D12*
D03*
X364700Y-48950D02*
G54D12*
D03*
X364700Y-123950D02*
G54D12*
D03*
X364700Y-48950D02*
G54D12*
D03*
X364700Y-123950D02*
G54D12*
D03*
X373041Y-243479D02*
G54D13*
D03*
X423041Y-243479D02*
G54D13*
D03*
X15800Y-136550D02*
G54D12*
D03*
X90800Y-136550D02*
G54D12*
D03*
X15800Y-136550D02*
G54D12*
D03*
X90800Y-136550D02*
G54D12*
D03*
X15800Y-98550D02*
G54D12*
D03*
X90800Y-98550D02*
G54D12*
D03*
X15800Y-98550D02*
G54D12*
D03*
X90800Y-98550D02*
G54D12*
D03*
X4900Y-40450D02*
G54D16*
D03*
X4900Y-65450D02*
G54D16*
D03*
X164810Y-155930D02*
G54D16*
D03*
X164810Y-130930D02*
G54D16*
D03*
X288843Y-52672D02*
G54D13*
D03*
X213843Y-52672D02*
G54D13*
D03*
X213843Y-27672D02*
G54D13*
D03*
X213843Y-2672D02*
G54D13*
D03*
X213843Y-77672D02*
G54D13*
D03*
X288843Y-27672D02*
G54D13*
D03*
X288843Y-2672D02*
G54D13*
D03*
G36*
X275843Y-64672D02*
X301843Y-64672D01*
X301843Y-90672D01*
X275843Y-90672D01*
X275843Y-64672D01*
G37*
X416200Y-865150D02*
G54D12*
D03*
X416200Y-790150D02*
G54D12*
D03*
X416200Y-865150D02*
G54D12*
D03*
X416200Y-790150D02*
G54D12*
D03*
X228200Y-546950D02*
G54D13*
D03*
X228200Y-596950D02*
G54D13*
D03*
X326200Y-106950D02*
G54D12*
D03*
X326200Y-181950D02*
G54D12*
D03*
X326200Y-106950D02*
G54D12*
D03*
X326200Y-181950D02*
G54D12*
D03*
X288741Y-168608D02*
G54D12*
D03*
X288741Y-243608D02*
G54D12*
D03*
X288741Y-168608D02*
G54D12*
D03*
X288741Y-243608D02*
G54D12*
D03*
X326200Y-218850D02*
G54D16*
D03*
X326200Y-243850D02*
G54D16*
D03*
X164849Y-85499D02*
G54D16*
D03*
X164849Y-60499D02*
G54D16*
D03*
X165041Y41691D02*
G54D12*
D03*
X165041Y-33309D02*
G54D12*
D03*
X165041Y41691D02*
G54D12*
D03*
X165041Y-33309D02*
G54D12*
D03*
G36*
X187400Y57650D02*
X219000Y57650D01*
X219000Y26050D01*
X187400Y26050D01*
X187400Y57650D01*
G37*
X243200Y41850D02*
G54D17*
D03*
X146300Y-685050D02*
G54D18*
D03*
X82900Y-685050D02*
G54D18*
D03*
X223400Y-707150D02*
G54D19*
D03*
G36*
X33700Y-438050D02*
X6300Y-438050D01*
X6300Y-410650D01*
X33700Y-410650D01*
X33700Y-438050D01*
G37*
X20000Y-449350D02*
G54D12*
D03*
M02*
