%FSLAX34Y34*%
%MOMM*%
%LNCOPPER_BOTTOM*%
G71*
G01*
%ADD10C, 4.490*%
%ADD11C, 3.800*%
%ADD12C, 0.700*%
%ADD13C, 2.100*%
%ADD14C, 3.340*%
%ADD15C, 1.700*%
%ADD16C, 3.200*%
%ADD17C, 0.500*%
%ADD18C, 1.000*%
%ADD19C, 1.500*%
%ADD20C, 3.420*%
%ADD21C, 4.200*%
%ADD22C, 3.120*%
%ADD23C, 3.140*%
%ADD24C, 3.560*%
%ADD25C, 1.300*%
%ADD26C, 3.760*%
%ADD27C, 1.100*%
%ADD28C, 2.940*%
%ADD29C, 3.490*%
%ADD30C, 2.200*%
%ADD31C, 2.140*%
%ADD32C, 2.000*%
%ADD33C, 2.220*%
%ADD34C, 3.200*%
%ADD35C, 1.920*%
%ADD36C, 2.560*%
%ADD37C, 2.560*%
%ADD38C, 0.300*%
%ADD39C, 2.400*%
%LPD*%
G36*
X-60000Y60000D02*
X510000Y60000D01*
X510000Y-940000D01*
X-60000Y-940000D01*
X-60000Y60000D01*
G37*
%LPC*%
X426200Y-735950D02*
G54D10*
D03*
X363200Y-735950D02*
G54D10*
D03*
X300200Y-735950D02*
G54D10*
D03*
X300200Y-573950D02*
G54D10*
D03*
X363200Y-573950D02*
G54D10*
D03*
X426200Y-573950D02*
G54D10*
D03*
G36*
X199700Y-844197D02*
X213447Y-830450D01*
X232953Y-830450D01*
X246700Y-844197D01*
X246700Y-863703D01*
X232953Y-877450D01*
X213447Y-877450D01*
X199700Y-863703D01*
X199700Y-844197D01*
G37*
G36*
X147700Y-844197D02*
X161447Y-830450D01*
X180953Y-830450D01*
X194700Y-844197D01*
X194700Y-863703D01*
X180953Y-877450D01*
X161447Y-877450D01*
X147700Y-863703D01*
X147700Y-844197D01*
G37*
G36*
X251700Y-844197D02*
X265447Y-830450D01*
X284953Y-830450D01*
X298700Y-844197D01*
X298700Y-863703D01*
X284953Y-877450D01*
X265447Y-877450D01*
X251700Y-863703D01*
X251700Y-844197D01*
G37*
G36*
X251700Y-890197D02*
X265447Y-876450D01*
X284953Y-876450D01*
X298700Y-890197D01*
X298700Y-909703D01*
X284953Y-923450D01*
X265447Y-923450D01*
X251700Y-909703D01*
X251700Y-890197D01*
G37*
G36*
X199700Y-890197D02*
X213447Y-876450D01*
X232953Y-876450D01*
X246700Y-890197D01*
X246700Y-909703D01*
X232953Y-923450D01*
X213447Y-923450D01*
X199700Y-909703D01*
X199700Y-890197D01*
G37*
G36*
X147700Y-890197D02*
X161447Y-876450D01*
X180953Y-876450D01*
X194700Y-890197D01*
X194700Y-909703D01*
X180953Y-923450D01*
X161447Y-923450D01*
X147700Y-909703D01*
X147700Y-890197D01*
G37*
G36*
X251700Y-798197D02*
X265447Y-784450D01*
X284953Y-784450D01*
X298700Y-798197D01*
X298700Y-817703D01*
X284953Y-831450D01*
X265447Y-831450D01*
X251700Y-817703D01*
X251700Y-798197D01*
G37*
G36*
X199700Y-798197D02*
X213447Y-784450D01*
X232953Y-784450D01*
X246700Y-798197D01*
X246700Y-817703D01*
X232953Y-831450D01*
X213447Y-831450D01*
X199700Y-817703D01*
X199700Y-798197D01*
G37*
G36*
X147700Y-798197D02*
X161447Y-784450D01*
X180953Y-784450D01*
X194700Y-798197D01*
X194700Y-817703D01*
X180953Y-831450D01*
X161447Y-831450D01*
X147700Y-817703D01*
X147700Y-798197D01*
G37*
X20200Y-573950D02*
G54D10*
D03*
X83200Y-573950D02*
G54D10*
D03*
X146200Y-573950D02*
G54D10*
D03*
X146200Y-735950D02*
G54D10*
D03*
X83200Y-735950D02*
G54D10*
D03*
X20200Y-735950D02*
G54D10*
D03*
X426200Y-493950D02*
G54D10*
D03*
X363200Y-493950D02*
G54D10*
D03*
X300200Y-493950D02*
G54D10*
D03*
X300200Y-331950D02*
G54D10*
D03*
X363200Y-331950D02*
G54D10*
D03*
X426200Y-331950D02*
G54D10*
D03*
X20200Y-331950D02*
G54D10*
D03*
X83200Y-331950D02*
G54D10*
D03*
X146200Y-331950D02*
G54D10*
D03*
X146200Y-493950D02*
G54D10*
D03*
X83200Y-493950D02*
G54D10*
D03*
X20200Y-493950D02*
G54D10*
D03*
X36200Y-832950D02*
G54D11*
D03*
X36200Y-807550D02*
G54D11*
D03*
G54D12*
X-3800Y-573950D02*
X47200Y-573950D01*
G54D12*
X20200Y-598950D02*
X20200Y-547950D01*
G54D12*
X20200Y-709950D02*
X20200Y-760950D01*
G54D12*
X47200Y-735950D02*
X-5800Y-735950D01*
G54D12*
X426200Y-760950D02*
X426200Y-709950D01*
G54D12*
X404200Y-735950D02*
X453200Y-735950D01*
G54D12*
X403200Y-573950D02*
X452200Y-573950D01*
G54D12*
X426200Y-599950D02*
X426200Y-550950D01*
G54D12*
X403200Y-493950D02*
X451200Y-493950D01*
G54D12*
X402000Y-331950D02*
X451200Y-331950D01*
G54D12*
X426200Y-355950D02*
X426200Y-306950D01*
G54D12*
X171200Y-853950D02*
X187200Y-869950D01*
G54D12*
X171200Y-853950D02*
X155200Y-837950D01*
G54D12*
X171200Y-853950D02*
X187200Y-837950D01*
G54D12*
X171200Y-853950D02*
X171200Y-854950D01*
X156200Y-869950D01*
G54D13*
X272200Y-807950D02*
X272200Y-809950D01*
X249200Y-832950D01*
X249200Y-873950D01*
X221200Y-901950D01*
G54D13*
X146200Y-735950D02*
X203200Y-735950D01*
X274200Y-806950D01*
X35900Y-900950D02*
G54D14*
D03*
X110900Y-900950D02*
G54D14*
D03*
X35900Y-900950D02*
G54D14*
D03*
X110900Y-900950D02*
G54D14*
D03*
G54D15*
X170200Y-900950D02*
X113200Y-900950D01*
X112200Y-899950D01*
G54D12*
X300200Y-759950D02*
X300200Y-712950D01*
G54D12*
X327600Y-736050D02*
X277800Y-735850D01*
G54D12*
X223200Y-806950D02*
X223200Y-779950D01*
G54D12*
X224200Y-807950D02*
X248200Y-807950D01*
X456700Y-789950D02*
G54D16*
D03*
X456700Y-839950D02*
G54D16*
D03*
X456700Y-814950D02*
G54D16*
D03*
X339200Y-900950D02*
G54D16*
D03*
X389200Y-900950D02*
G54D16*
D03*
X339200Y-789950D02*
G54D14*
D03*
X339200Y-864950D02*
G54D14*
D03*
X339200Y-789950D02*
G54D14*
D03*
X339200Y-864950D02*
G54D14*
D03*
X83800Y-778650D02*
G54D14*
D03*
X83800Y-853650D02*
G54D14*
D03*
X83800Y-778650D02*
G54D14*
D03*
X83800Y-853650D02*
G54D14*
D03*
X177200Y-533950D02*
G54D16*
D03*
X127200Y-533950D02*
G54D16*
D03*
X20200Y-533950D02*
G54D14*
D03*
X95200Y-533950D02*
G54D14*
D03*
X20200Y-533950D02*
G54D14*
D03*
X95200Y-533950D02*
G54D14*
D03*
G54D12*
X20200Y-547950D02*
X20100Y-519750D01*
G54D12*
X2200Y-533950D02*
X36200Y-533950D01*
X238973Y-133150D02*
G54D16*
D03*
X288973Y-133150D02*
G54D16*
D03*
G54D17*
X321200Y-789950D02*
X358200Y-789950D01*
G54D17*
X339200Y-807950D02*
X339200Y-769950D01*
G54D13*
X36200Y-900950D02*
X36200Y-832950D01*
X39200Y-829950D01*
G36*
X15783Y30550D02*
X30700Y15633D01*
X30700Y-5533D01*
X15783Y-20450D01*
X-5383Y-20450D01*
X-20300Y-5533D01*
X-20300Y15633D01*
X-5383Y30550D01*
X15783Y30550D01*
G37*
G36*
X65783Y30550D02*
X80700Y15633D01*
X80700Y-5533D01*
X65783Y-20450D01*
X44617Y-20450D01*
X29700Y-5533D01*
X29700Y15633D01*
X44617Y30550D01*
X65783Y30550D01*
G37*
G36*
X115783Y30550D02*
X130700Y15633D01*
X130700Y-5533D01*
X115783Y-20450D01*
X94617Y-20450D01*
X79700Y-5533D01*
X79700Y15633D01*
X94617Y30550D01*
X115783Y30550D01*
G37*
G36*
X351783Y30550D02*
X366700Y15633D01*
X366700Y-5533D01*
X351783Y-20450D01*
X330617Y-20450D01*
X315700Y-5533D01*
X315700Y15633D01*
X330617Y30550D01*
X351783Y30550D01*
G37*
G36*
X401783Y30550D02*
X416700Y15633D01*
X416700Y-5533D01*
X401783Y-20450D01*
X380617Y-20450D01*
X365700Y-5533D01*
X365700Y15633D01*
X380617Y30550D01*
X401783Y30550D01*
G37*
G36*
X451783Y30550D02*
X466700Y15633D01*
X466700Y-5533D01*
X451783Y-20450D01*
X430617Y-20450D01*
X415700Y-5533D01*
X415700Y15633D01*
X430617Y30550D01*
X451783Y30550D01*
G37*
G54D18*
X391200Y-21950D02*
X391200Y34050D01*
G54D18*
X105200Y-24950D02*
X105200Y34050D01*
G54D18*
X106200Y5050D02*
X136200Y5050D01*
X471200Y-47950D02*
G54D14*
D03*
X471200Y-122950D02*
G54D14*
D03*
X471200Y-47950D02*
G54D14*
D03*
X471200Y-122950D02*
G54D14*
D03*
G54D19*
X96200Y-533950D02*
X142800Y-533750D01*
X146100Y-530850D01*
X146200Y-497950D01*
X147200Y-496950D01*
X101200Y-202950D02*
G54D16*
D03*
X101200Y-277950D02*
G54D16*
D03*
X76200Y-277950D02*
G54D16*
D03*
X51200Y-277950D02*
G54D16*
D03*
X126200Y-277950D02*
G54D16*
D03*
X76200Y-202950D02*
G54D16*
D03*
X51200Y-202950D02*
G54D16*
D03*
G36*
X110200Y-218950D02*
X110200Y-186950D01*
X142200Y-186950D01*
X142200Y-218950D01*
X110200Y-218950D01*
G37*
G54D17*
X51200Y-186250D02*
X51200Y-201950D01*
G54D17*
X50200Y-202950D02*
X35200Y-202950D01*
X15200Y-277950D02*
G54D14*
D03*
X15200Y-202950D02*
G54D14*
D03*
X15200Y-277950D02*
G54D14*
D03*
X15200Y-202950D02*
G54D14*
D03*
X51541Y-166491D02*
G54D14*
D03*
X126541Y-166491D02*
G54D14*
D03*
X51541Y-166491D02*
G54D14*
D03*
X126541Y-166491D02*
G54D14*
D03*
X-11800Y-806950D02*
G54D20*
D03*
X-11800Y-856950D02*
G54D20*
D03*
G54D15*
X36200Y-806950D02*
X-19800Y-806950D01*
G54D17*
X-29800Y-856950D02*
X6200Y-856950D01*
G54D17*
X-11800Y-874950D02*
X-11800Y-837950D01*
G54D15*
X76200Y-277950D02*
X99200Y-277950D01*
X100200Y-276950D01*
G54D15*
X15200Y-277950D02*
X51200Y-277950D01*
X52200Y-276950D01*
X171300Y-297550D02*
G54D14*
D03*
X171300Y-222550D02*
G54D14*
D03*
X171300Y-297550D02*
G54D14*
D03*
X171300Y-222550D02*
G54D14*
D03*
G54D15*
X126200Y-202950D02*
X126200Y-165950D01*
G54D15*
X100200Y-202950D02*
X100200Y-178950D01*
X88200Y-166950D01*
X55200Y-166950D01*
X54200Y-165950D01*
G54D15*
X15200Y-202950D02*
X15200Y-218950D01*
X18200Y-221950D01*
X73200Y-221950D01*
X76200Y-218950D01*
X76200Y-202950D01*
X223200Y-242950D02*
G54D21*
D03*
X223200Y-192950D02*
G54D21*
D03*
X223200Y-292950D02*
G54D21*
D03*
X211200Y-406950D02*
G54D14*
D03*
X211200Y-331950D02*
G54D14*
D03*
X211200Y-406950D02*
G54D14*
D03*
X211200Y-331950D02*
G54D14*
D03*
G54D15*
X146200Y-331950D02*
X301200Y-331950D01*
X355708Y-288021D02*
G54D16*
D03*
X305708Y-288021D02*
G54D16*
D03*
X214200Y-106950D02*
G54D14*
D03*
X289200Y-106950D02*
G54D14*
D03*
X214200Y-106950D02*
G54D14*
D03*
X289200Y-106950D02*
G54D14*
D03*
X228200Y-469950D02*
G54D16*
D03*
X228200Y-519950D02*
G54D16*
D03*
X378200Y-789950D02*
G54D14*
D03*
X378200Y-864950D02*
G54D14*
D03*
X378200Y-789950D02*
G54D14*
D03*
X378200Y-864950D02*
G54D14*
D03*
G54D17*
X360200Y-789950D02*
X397200Y-789950D01*
G54D17*
X378200Y-807950D02*
X378200Y-769950D01*
X441200Y-48950D02*
G54D14*
D03*
X441200Y-123950D02*
G54D14*
D03*
X441200Y-48950D02*
G54D14*
D03*
X441200Y-123950D02*
G54D14*
D03*
X396000Y-48950D02*
G54D14*
D03*
X396000Y-123950D02*
G54D14*
D03*
X396000Y-48950D02*
G54D14*
D03*
X396000Y-123950D02*
G54D14*
D03*
X364700Y-48950D02*
G54D14*
D03*
X364700Y-123950D02*
G54D14*
D03*
X364700Y-48950D02*
G54D14*
D03*
X364700Y-123950D02*
G54D14*
D03*
G54D15*
X471200Y-47950D02*
X441200Y-47950D01*
X441200Y7050D01*
X440200Y8050D01*
X373041Y-243479D02*
G54D16*
D03*
X423041Y-243479D02*
G54D16*
D03*
X15800Y-136550D02*
G54D14*
D03*
X90800Y-136550D02*
G54D14*
D03*
X15800Y-136550D02*
G54D14*
D03*
X90800Y-136550D02*
G54D14*
D03*
X15800Y-98550D02*
G54D14*
D03*
X90800Y-98550D02*
G54D14*
D03*
X15800Y-98550D02*
G54D14*
D03*
X90800Y-98550D02*
G54D14*
D03*
G54D17*
X73200Y-136950D02*
X109200Y-136950D01*
G54D17*
X91200Y-118950D02*
X91200Y-153950D01*
X4900Y-40450D02*
G54D22*
D03*
X4900Y-65450D02*
G54D22*
D03*
G54D15*
X5200Y-37950D02*
X5200Y9050D01*
X6200Y10050D01*
X164810Y-155930D02*
G54D22*
D03*
X164810Y-130930D02*
G54D22*
D03*
G54D17*
X147810Y-155930D02*
X182810Y-155930D01*
G54D17*
X164810Y-155930D02*
X164810Y-171931D01*
X288843Y-52672D02*
G54D16*
D03*
X213843Y-52672D02*
G54D16*
D03*
X213843Y-27672D02*
G54D16*
D03*
X213843Y-2672D02*
G54D16*
D03*
X213843Y-77672D02*
G54D16*
D03*
X288843Y-27672D02*
G54D16*
D03*
X288843Y-2672D02*
G54D16*
D03*
G36*
X272843Y-61672D02*
X304843Y-61672D01*
X304843Y-93672D01*
X272843Y-93672D01*
X272843Y-61672D01*
G37*
X416200Y-865150D02*
G54D14*
D03*
X416200Y-790150D02*
G54D14*
D03*
X416200Y-865150D02*
G54D14*
D03*
X416200Y-790150D02*
G54D14*
D03*
G54D17*
X398200Y-865150D02*
X435200Y-865150D01*
G54D17*
X416200Y-847150D02*
X416200Y-885150D01*
G54D15*
X455200Y-789950D02*
X438200Y-789950D01*
X416200Y-789950D01*
X415200Y-790950D01*
X228200Y-546950D02*
G54D16*
D03*
X228200Y-596950D02*
G54D16*
D03*
G54D17*
X426200Y-518950D02*
X426200Y-468950D01*
G54D15*
X339200Y-864950D02*
X339200Y-901950D01*
X338200Y-902950D01*
G54D15*
X338200Y-900950D02*
X282200Y-900950D01*
X278200Y-896950D01*
G54D15*
X378200Y-863950D02*
X378200Y-888950D01*
X389200Y-899950D01*
G54D17*
X194200Y-406950D02*
X229200Y-406950D01*
G54D17*
X211200Y-424950D02*
X211200Y-387950D01*
G54D15*
X228200Y-468950D02*
X228200Y-440950D01*
X251200Y-417950D01*
X251200Y-331950D01*
X326200Y-106950D02*
G54D14*
D03*
X326200Y-181950D02*
G54D14*
D03*
X326200Y-106950D02*
G54D14*
D03*
X326200Y-181950D02*
G54D14*
D03*
X288741Y-168608D02*
G54D14*
D03*
X288741Y-243608D02*
G54D14*
D03*
X288741Y-168608D02*
G54D14*
D03*
X288741Y-243608D02*
G54D14*
D03*
G54D15*
X289200Y-110950D02*
X289200Y-167950D01*
X288200Y-168950D01*
X326200Y-218850D02*
G54D22*
D03*
X326200Y-243850D02*
G54D22*
D03*
G54D15*
X289200Y-243950D02*
X326200Y-243950D01*
G54D15*
X326200Y-218950D02*
X326200Y-184950D01*
X164849Y-85499D02*
G54D22*
D03*
X164849Y-60499D02*
G54D22*
D03*
G54D17*
X147850Y-85499D02*
X182849Y-85499D01*
G54D17*
X164849Y-85499D02*
X164849Y-101399D01*
X165041Y41691D02*
G54D23*
D03*
X165041Y-33309D02*
G54D23*
D03*
X165041Y41691D02*
G54D23*
D03*
X165041Y-33309D02*
G54D23*
D03*
G54D17*
X309200Y-2950D02*
X270200Y-2950D01*
G54D17*
X289200Y-2950D02*
X289200Y17050D01*
G36*
X185400Y59650D02*
X221000Y59650D01*
X221000Y24050D01*
X185400Y24050D01*
X185400Y59650D01*
G37*
X243200Y41850D02*
G54D24*
D03*
G54D19*
X171200Y41850D02*
X203200Y41850D01*
X204200Y40850D01*
G54D17*
X225200Y41850D02*
X262200Y41850D01*
G54D17*
X243200Y59850D02*
X243200Y20850D01*
G54D17*
X-51400Y-726950D02*
X-51400Y-864450D01*
X-26500Y-889350D01*
G54D17*
X-51400Y-4465D02*
X-51400Y28635D01*
X7700Y87735D01*
X420600Y87735D01*
X496800Y8360D01*
X496800Y-840365D01*
X451400Y-885765D01*
G54D15*
X101700Y-277450D02*
X101700Y-292450D01*
X106700Y-297450D01*
X225700Y-297450D01*
X226700Y-296450D01*
G54D15*
X-14700Y-257350D02*
X121700Y-257450D01*
X126700Y-262450D01*
X126700Y-278450D01*
G36*
X14700Y-258450D02*
X14700Y-281450D01*
X15700Y-282450D01*
X91700Y-282450D01*
X108700Y-299450D01*
X126300Y-297750D01*
X126400Y-282150D01*
X125900Y-262250D01*
X118700Y-257450D01*
X20700Y-257450D01*
X16700Y-261450D01*
X14700Y-258450D01*
G37*
G54D17*
X14700Y-258450D02*
X14700Y-281450D01*
X15700Y-282450D01*
X91700Y-282450D01*
X108700Y-299450D01*
X126300Y-297750D01*
X126400Y-282150D01*
X125900Y-262250D01*
X118700Y-257450D01*
X20700Y-257450D01*
X16700Y-261450D01*
X14700Y-258450D01*
G36*
X49700Y-200450D02*
X49700Y-221450D01*
X71700Y-221450D01*
X85700Y-207450D01*
X90700Y-207450D01*
X105700Y-222450D01*
X163700Y-221650D01*
X163900Y-202350D01*
X129600Y-199650D01*
X52700Y-199450D01*
X49700Y-200450D01*
G37*
G54D17*
X49700Y-200450D02*
X49700Y-221450D01*
X71700Y-221450D01*
X85700Y-207450D01*
X90700Y-207450D01*
X105700Y-222450D01*
X163700Y-221650D01*
X163900Y-202350D01*
X129600Y-199650D01*
X52700Y-199450D01*
X49700Y-200450D01*
G36*
X207700Y-27450D02*
X207700Y-112450D01*
X209700Y-114450D01*
X221700Y-114450D01*
X234700Y-101450D01*
X234700Y-33450D01*
X227700Y-26450D01*
X219700Y-26450D01*
X216700Y-23450D01*
X207700Y-27450D01*
G37*
G54D17*
X207700Y-27450D02*
X207700Y-112450D01*
X209700Y-114450D01*
X221700Y-114450D01*
X234700Y-101450D01*
X234700Y-33450D01*
X227700Y-26450D01*
X219700Y-26450D01*
X216700Y-23450D01*
X207700Y-27450D01*
G36*
X272700Y-106450D02*
X265700Y-99450D01*
X265700Y-58450D01*
X273700Y-50450D01*
X294700Y-50450D01*
X295700Y-51450D01*
X295700Y-108450D01*
X292700Y-111450D01*
X272700Y-106450D01*
G37*
G54D17*
X272700Y-106450D02*
X265700Y-99450D01*
X265700Y-58450D01*
X273700Y-50450D01*
X294700Y-50450D01*
X295700Y-51450D01*
X295700Y-108450D01*
X292700Y-111450D01*
X272700Y-106450D01*
G36*
X5700Y30550D02*
X5700Y26550D01*
X25700Y6550D01*
X31700Y6550D01*
X51700Y26550D01*
X51700Y31550D01*
X50700Y32550D01*
X8700Y32550D01*
X6700Y30550D01*
X5700Y30550D01*
G37*
G54D17*
X5700Y30550D02*
X5700Y26550D01*
X25700Y6550D01*
X31700Y6550D01*
X51700Y26550D01*
X51700Y31550D01*
X50700Y32550D01*
X8700Y32550D01*
X6700Y30550D01*
X5700Y30550D01*
G54D15*
X15400Y-203050D02*
X15400Y-137050D01*
X15900Y-136550D01*
X32100Y-136550D01*
X70000Y-98650D01*
X91800Y-98650D01*
G54D25*
X15800Y-98350D02*
X32700Y-98350D01*
X71500Y-59550D01*
X163900Y-59550D01*
X164100Y-59750D01*
G54D25*
X164900Y-59750D02*
X164900Y-33850D01*
X164700Y-33650D01*
G54D25*
X4700Y-65550D02*
X34300Y-65550D01*
X61000Y-38850D01*
X116400Y-38850D01*
X148800Y-6450D01*
X192400Y-6450D01*
X213900Y-27950D01*
G54D15*
X172000Y-222250D02*
X104800Y-222250D01*
X101000Y-218450D01*
X101000Y-202550D01*
G54D15*
X125700Y-202950D02*
X156700Y-202950D01*
X167300Y-192350D01*
X221300Y-192350D01*
G54D25*
X471300Y-122750D02*
X471300Y-441850D01*
X462300Y-450850D01*
X274200Y-450850D01*
X264900Y-460150D01*
X264900Y-510550D01*
X228200Y-547250D01*
G54D15*
X223200Y-242950D02*
X223600Y-242950D01*
X268600Y-287950D01*
X304200Y-287950D01*
X305600Y-289350D01*
G54D25*
X372900Y-243450D02*
X372900Y-187850D01*
X326300Y-141250D01*
X326300Y-109950D01*
X326500Y-109750D01*
G54D25*
X326200Y-109950D02*
X326200Y-37150D01*
X317000Y-27950D01*
X288200Y-27950D01*
X287500Y-27250D01*
G54D13*
X289000Y-52550D02*
X270400Y-52550D01*
X268200Y-54750D01*
X268200Y-104350D01*
X270600Y-106750D01*
X290800Y-106750D01*
G54D13*
X239000Y-133050D02*
X239000Y-30550D01*
X236200Y-27750D01*
X214900Y-27750D01*
X214800Y-27650D01*
G54D13*
X214400Y-106950D02*
X238800Y-106950D01*
X238900Y-106850D01*
G54D13*
X214200Y-52850D02*
X193000Y-52850D01*
X185800Y-60050D01*
X165000Y-60050D01*
X164200Y-60850D01*
G54D25*
X164800Y-130750D02*
X123400Y-130750D01*
X90800Y-98150D01*
G54D15*
X278500Y-858050D02*
X278500Y-849050D01*
X302700Y-824850D01*
X302700Y-788050D01*
X264900Y-750250D01*
X264900Y-643950D01*
X300500Y-608350D01*
X300500Y-572850D01*
X300800Y-572550D01*
G54D15*
X83900Y-853550D02*
X108500Y-853550D01*
X141600Y-820550D01*
X141600Y-796550D01*
X157300Y-780850D01*
X183200Y-780850D01*
X198300Y-795950D01*
X198300Y-825750D01*
X225100Y-852550D01*
G54D15*
X-11300Y-806950D02*
X-40500Y-806950D01*
X-45400Y-811850D01*
X-45400Y-861950D01*
X27850Y-935200D01*
X400250Y-935200D01*
X456600Y-878850D01*
X456600Y-839350D01*
X455200Y-837950D01*
X146300Y-685050D02*
G54D26*
D03*
X82900Y-685050D02*
G54D26*
D03*
G54D17*
X103200Y-684750D02*
X63600Y-684750D01*
G54D17*
X83200Y-665150D02*
X83200Y-705050D01*
X83300Y-705150D01*
G54D17*
X146300Y-665450D02*
X146300Y-704750D01*
X146200Y-704850D01*
G54D17*
X126100Y-684550D02*
X166400Y-684550D01*
X166500Y-684450D01*
G54D25*
X36300Y-807450D02*
X110400Y-807450D01*
X114800Y-803250D01*
X114700Y-647950D01*
X109500Y-642650D01*
X-13400Y-642650D01*
X-15900Y-640150D01*
X-15900Y-256250D01*
X-15800Y-256150D01*
G54D19*
X-15900Y-257950D02*
X-15900Y-103050D01*
X-11200Y-98350D01*
X16100Y-98350D01*
X16400Y-98650D01*
G54D19*
X228300Y-519650D02*
X228300Y-519850D01*
X207400Y-540750D01*
X207400Y-594750D01*
X209700Y-597050D01*
X230500Y-597050D01*
G54D15*
X378200Y-864850D02*
X378200Y-823250D01*
X386500Y-814950D01*
X454800Y-814950D01*
X455800Y-815950D01*
G36*
X413000Y-788350D02*
X413000Y-813650D01*
X413500Y-814150D01*
X456800Y-814150D01*
X458100Y-815450D01*
X458100Y-789250D01*
X457800Y-788950D01*
X413000Y-788350D01*
G37*
G54D17*
X413000Y-788350D02*
X413000Y-813650D01*
X413500Y-814150D01*
X456800Y-814150D01*
X458100Y-815450D01*
X458100Y-789250D01*
X457800Y-788950D01*
X413000Y-788350D01*
G54D15*
X82900Y-775050D02*
X-39900Y-775050D01*
X-45200Y-769750D01*
X-45200Y750D01*
X-7900Y38050D01*
X53000Y38050D01*
X55700Y35350D01*
X55700Y5050D01*
X55600Y4950D01*
G54D25*
X441200Y-123450D02*
X441200Y-92750D01*
X437400Y-88950D01*
X368900Y-88950D01*
X364700Y-93150D01*
X364700Y-140750D01*
X423500Y-199550D01*
X423500Y-243750D01*
X423000Y-244250D01*
G54D25*
X395700Y-124250D02*
X396400Y-124250D01*
X451200Y-179050D01*
X451200Y-284350D01*
X447200Y-288350D01*
X358000Y-288350D01*
X357500Y-288850D01*
G54D15*
X364400Y-48550D02*
X364400Y-18550D01*
X346100Y-250D01*
G54D13*
X365000Y-48550D02*
X397800Y-48550D01*
X398900Y-49650D01*
G54D25*
X164500Y-131050D02*
X188000Y-131050D01*
X216500Y-159550D01*
X255000Y-159550D01*
X258300Y-162850D01*
X258300Y-196050D01*
X262600Y-200350D01*
X326000Y-200350D01*
X326100Y-200450D01*
G54D27*
X433850Y-388900D02*
X435650Y-391900D01*
X439250Y-393400D01*
X442850Y-393400D01*
X446450Y-391900D01*
X448250Y-388900D01*
X448250Y-373900D01*
X446450Y-370900D01*
X442850Y-369400D01*
X439250Y-369400D01*
X435650Y-370900D01*
X433850Y-373900D01*
G54D27*
X412850Y-373900D02*
X412850Y-388900D01*
X414650Y-391900D01*
X418250Y-393400D01*
X421850Y-393400D01*
X425450Y-391900D01*
X427250Y-388900D01*
X427250Y-373900D01*
X425450Y-370900D01*
X421850Y-369400D01*
X418250Y-369400D01*
X414650Y-370900D01*
X412850Y-373900D01*
G54D27*
X391850Y-388900D02*
X393650Y-391900D01*
X397250Y-393400D01*
X400850Y-393400D01*
X404450Y-391900D01*
X406250Y-388900D01*
X406250Y-373900D01*
X404450Y-370900D01*
X400850Y-369400D01*
X397250Y-369400D01*
X393650Y-370900D01*
X391850Y-373900D01*
G54D27*
X378050Y-393400D02*
X378050Y-369400D01*
G54D27*
X385250Y-369400D02*
X370850Y-369400D01*
G54D27*
X364250Y-393400D02*
X355250Y-369400D01*
X346250Y-393400D01*
G54D27*
X360650Y-384400D02*
X349850Y-384400D01*
G54D27*
X339650Y-393400D02*
X325250Y-393400D01*
G54D27*
X332450Y-393400D02*
X332450Y-369400D01*
G54D27*
X339650Y-369400D02*
X325250Y-369400D01*
G54D27*
X318650Y-369400D02*
X318650Y-393400D01*
X306050Y-393400D01*
G54D27*
X441050Y-429750D02*
X441050Y-405750D01*
X432050Y-405750D01*
X428450Y-407250D01*
X426650Y-410250D01*
X426650Y-413250D01*
X428450Y-416250D01*
X432050Y-417750D01*
X428450Y-419250D01*
X426650Y-422250D01*
X426650Y-425250D01*
X428450Y-428250D01*
X432050Y-429750D01*
X441050Y-429750D01*
G54D27*
X441050Y-417750D02*
X432050Y-417750D01*
G54D27*
X420050Y-405750D02*
X420050Y-429750D01*
X407450Y-429750D01*
G54D27*
X388250Y-429750D02*
X400850Y-429750D01*
X400850Y-405750D01*
X388250Y-405750D01*
G54D27*
X400850Y-417750D02*
X388250Y-417750D01*
G54D27*
X381650Y-429750D02*
X381650Y-405750D01*
X367250Y-429750D01*
X367250Y-405750D01*
G54D27*
X360650Y-429750D02*
X360650Y-405750D01*
X351650Y-405750D01*
X348050Y-407250D01*
X346250Y-410250D01*
X346250Y-425250D01*
X348050Y-428250D01*
X351650Y-429750D01*
X360650Y-429750D01*
G54D27*
X327050Y-429750D02*
X339650Y-429750D01*
X339650Y-405750D01*
X327050Y-405750D01*
G54D27*
X339650Y-417750D02*
X327050Y-417750D01*
G54D27*
X313250Y-417750D02*
X307850Y-420750D01*
X306050Y-423750D01*
X306050Y-429750D01*
G54D27*
X320450Y-429750D02*
X320450Y-405750D01*
X311450Y-405750D01*
X307850Y-407250D01*
X306050Y-410250D01*
X306050Y-413250D01*
X307850Y-416250D01*
X311450Y-417750D01*
X320450Y-417750D01*
X223400Y-707150D02*
G54D16*
D03*
G54D17*
X204900Y-707150D02*
X241900Y-707150D01*
G54D17*
X223300Y-724950D02*
X223300Y-688350D01*
G54D19*
X177100Y-534250D02*
X177100Y-379250D01*
X172400Y-374550D01*
X57800Y-374550D01*
X51700Y-368450D01*
X51700Y-281050D01*
X49500Y-278850D01*
G36*
X34700Y-439050D02*
X5300Y-439050D01*
X5300Y-409650D01*
X34700Y-409650D01*
X34700Y-439050D01*
G37*
X20000Y-449350D02*
G54D28*
D03*
G54D25*
X19900Y-493350D02*
X19900Y-449750D01*
X20100Y-449550D01*
G54D17*
X3600Y-424050D02*
X37700Y-424050D01*
X37800Y-423950D01*
G54D17*
X20100Y-423850D02*
X20100Y-405050D01*
G54D25*
X228500Y-596750D02*
X259600Y-596750D01*
X262200Y-594150D01*
X262200Y-540750D01*
X267300Y-535650D01*
X330200Y-535650D01*
X331700Y-537150D01*
X331700Y-637550D01*
X339600Y-645450D01*
X466000Y-645450D01*
X473800Y-653250D01*
X473800Y-772550D01*
X456600Y-789750D01*
%LPD*%
X426200Y-735950D02*
G54D29*
D03*
X363200Y-735950D02*
G54D29*
D03*
X300200Y-735950D02*
G54D29*
D03*
X300200Y-573950D02*
G54D29*
D03*
X363200Y-573950D02*
G54D29*
D03*
X426200Y-573950D02*
G54D29*
D03*
G36*
X206700Y-847102D02*
X216352Y-837450D01*
X230048Y-837450D01*
X239700Y-847102D01*
X239700Y-860798D01*
X230048Y-870450D01*
X216352Y-870450D01*
X206700Y-860798D01*
X206700Y-847102D01*
G37*
G36*
X154700Y-847150D02*
X164400Y-837450D01*
X178000Y-837450D01*
X187700Y-847150D01*
X187700Y-860750D01*
X178000Y-870450D01*
X164400Y-870450D01*
X154700Y-860750D01*
X154700Y-847150D01*
G37*
G36*
X258700Y-847102D02*
X268352Y-837450D01*
X282048Y-837450D01*
X291700Y-847102D01*
X291700Y-860798D01*
X282048Y-870450D01*
X268352Y-870450D01*
X258700Y-860798D01*
X258700Y-847102D01*
G37*
G36*
X258700Y-893102D02*
X268352Y-883450D01*
X282048Y-883450D01*
X291700Y-893102D01*
X291700Y-906798D01*
X282048Y-916450D01*
X268352Y-916450D01*
X258700Y-906798D01*
X258700Y-893102D01*
G37*
G36*
X206700Y-893102D02*
X216352Y-883450D01*
X230048Y-883450D01*
X239700Y-893102D01*
X239700Y-906798D01*
X230048Y-916450D01*
X216352Y-916450D01*
X206700Y-906798D01*
X206700Y-893102D01*
G37*
G36*
X154700Y-893102D02*
X164352Y-883450D01*
X178048Y-883450D01*
X187700Y-893102D01*
X187700Y-906798D01*
X178048Y-916450D01*
X164352Y-916450D01*
X154700Y-906798D01*
X154700Y-893102D01*
G37*
G36*
X258700Y-801150D02*
X268400Y-791450D01*
X282000Y-791450D01*
X291700Y-801150D01*
X291700Y-814750D01*
X282000Y-824450D01*
X268400Y-824450D01*
X258700Y-814750D01*
X258700Y-801150D01*
G37*
G36*
X206700Y-801102D02*
X216352Y-791450D01*
X230048Y-791450D01*
X239700Y-801102D01*
X239700Y-814798D01*
X230048Y-824450D01*
X216352Y-824450D01*
X206700Y-814798D01*
X206700Y-801102D01*
G37*
G36*
X154700Y-801150D02*
X164400Y-791450D01*
X178000Y-791450D01*
X187700Y-801150D01*
X187700Y-814750D01*
X178000Y-824450D01*
X164400Y-824450D01*
X154700Y-814750D01*
X154700Y-801150D01*
G37*
X20200Y-573950D02*
G54D29*
D03*
X83200Y-573950D02*
G54D29*
D03*
X146200Y-573950D02*
G54D29*
D03*
X146200Y-735950D02*
G54D29*
D03*
X83200Y-735950D02*
G54D29*
D03*
X20200Y-735950D02*
G54D29*
D03*
X426200Y-493950D02*
G54D29*
D03*
X363200Y-493950D02*
G54D29*
D03*
X300200Y-493950D02*
G54D29*
D03*
X300200Y-331950D02*
G54D29*
D03*
X363200Y-331950D02*
G54D29*
D03*
X426200Y-331950D02*
G54D29*
D03*
X20200Y-331950D02*
G54D29*
D03*
X83200Y-331950D02*
G54D29*
D03*
X146200Y-331950D02*
G54D29*
D03*
X146200Y-493950D02*
G54D29*
D03*
X83200Y-493950D02*
G54D29*
D03*
X20200Y-493950D02*
G54D29*
D03*
X36200Y-832950D02*
G54D30*
D03*
X36200Y-807550D02*
G54D30*
D03*
G54D12*
X-3800Y-573950D02*
X47200Y-573950D01*
G54D12*
X20200Y-598950D02*
X20200Y-547950D01*
G54D12*
X20200Y-709950D02*
X20200Y-760950D01*
G54D12*
X47200Y-735950D02*
X-5800Y-735950D01*
G54D12*
X426200Y-760950D02*
X426200Y-709950D01*
G54D12*
X404200Y-735950D02*
X453200Y-735950D01*
G54D12*
X403200Y-573950D02*
X452200Y-573950D01*
G54D12*
X426200Y-599950D02*
X426200Y-550950D01*
G54D12*
X403200Y-493950D02*
X451200Y-493950D01*
G54D12*
X402000Y-331950D02*
X451200Y-331950D01*
G54D12*
X426200Y-355950D02*
X426200Y-306950D01*
G54D12*
X171200Y-853950D02*
X187200Y-869950D01*
G54D12*
X171200Y-853950D02*
X155200Y-837950D01*
G54D12*
X171200Y-853950D02*
X187200Y-837950D01*
G54D12*
X171200Y-853950D02*
X171200Y-854950D01*
X156200Y-869950D01*
G54D17*
X272200Y-807950D02*
X272200Y-809950D01*
X249200Y-832950D01*
X249200Y-873950D01*
X221200Y-901950D01*
G54D17*
X146200Y-735950D02*
X203200Y-735950D01*
X274200Y-806950D01*
X35900Y-900950D02*
G54D31*
D03*
X110900Y-900950D02*
G54D31*
D03*
X35900Y-900950D02*
G54D31*
D03*
X110900Y-900950D02*
G54D31*
D03*
G54D17*
X170200Y-900950D02*
X113200Y-900950D01*
X112200Y-899950D01*
G54D12*
X300200Y-759950D02*
X300200Y-712950D01*
G54D12*
X327600Y-736050D02*
X277800Y-735850D01*
G54D12*
X223200Y-806950D02*
X223200Y-779950D01*
G54D12*
X224200Y-807950D02*
X248200Y-807950D01*
X456700Y-789950D02*
G54D32*
D03*
X456700Y-839950D02*
G54D32*
D03*
X456700Y-814950D02*
G54D32*
D03*
X339200Y-900950D02*
G54D32*
D03*
X389200Y-900950D02*
G54D32*
D03*
X339200Y-789950D02*
G54D31*
D03*
X339200Y-864950D02*
G54D31*
D03*
X339200Y-789950D02*
G54D31*
D03*
X339200Y-864950D02*
G54D31*
D03*
X83800Y-778650D02*
G54D31*
D03*
X83800Y-853650D02*
G54D31*
D03*
X83800Y-778650D02*
G54D31*
D03*
X83800Y-853650D02*
G54D31*
D03*
X177200Y-533950D02*
G54D32*
D03*
X127200Y-533950D02*
G54D32*
D03*
X20200Y-533950D02*
G54D31*
D03*
X95200Y-533950D02*
G54D31*
D03*
X20200Y-533950D02*
G54D31*
D03*
X95200Y-533950D02*
G54D31*
D03*
G54D12*
X20200Y-547950D02*
X20100Y-519750D01*
G54D12*
X2200Y-533950D02*
X36200Y-533950D01*
X238973Y-133150D02*
G54D32*
D03*
X288973Y-133150D02*
G54D32*
D03*
G54D17*
X321200Y-789950D02*
X358200Y-789950D01*
G54D17*
X339200Y-807950D02*
X339200Y-769950D01*
G54D17*
X36200Y-900950D02*
X36200Y-832950D01*
X39200Y-829950D01*
G36*
X12462Y22550D02*
X22700Y12312D01*
X22700Y-2212D01*
X12462Y-12450D01*
X-2062Y-12450D01*
X-12300Y-2212D01*
X-12300Y12312D01*
X-2062Y22550D01*
X12462Y22550D01*
G37*
G36*
X62462Y22550D02*
X72700Y12312D01*
X72700Y-2212D01*
X62462Y-12450D01*
X47938Y-12450D01*
X37700Y-2212D01*
X37700Y12312D01*
X47938Y22550D01*
X62462Y22550D01*
G37*
G36*
X112462Y22550D02*
X122700Y12312D01*
X122700Y-2212D01*
X112462Y-12450D01*
X97938Y-12450D01*
X87700Y-2212D01*
X87700Y12312D01*
X97938Y22550D01*
X112462Y22550D01*
G37*
G36*
X348462Y22550D02*
X358700Y12312D01*
X358700Y-2212D01*
X348462Y-12450D01*
X333938Y-12450D01*
X323700Y-2212D01*
X323700Y12312D01*
X333938Y22550D01*
X348462Y22550D01*
G37*
G36*
X398462Y22550D02*
X408700Y12312D01*
X408700Y-2212D01*
X398462Y-12450D01*
X383938Y-12450D01*
X373700Y-2212D01*
X373700Y12312D01*
X383938Y22550D01*
X398462Y22550D01*
G37*
G36*
X448462Y22550D02*
X458700Y12312D01*
X458700Y-2212D01*
X448462Y-12450D01*
X433938Y-12450D01*
X423700Y-2212D01*
X423700Y12312D01*
X433938Y22550D01*
X448462Y22550D01*
G37*
G54D18*
X391200Y-21950D02*
X391200Y34050D01*
G54D18*
X105200Y-24950D02*
X105200Y34050D01*
G54D18*
X106200Y5050D02*
X136200Y5050D01*
X471200Y-47950D02*
G54D31*
D03*
X471200Y-122950D02*
G54D31*
D03*
X471200Y-47950D02*
G54D31*
D03*
X471200Y-122950D02*
G54D31*
D03*
G54D17*
X96200Y-533950D02*
X142800Y-533750D01*
X146100Y-530850D01*
X146200Y-497950D01*
X147200Y-496950D01*
X101200Y-202950D02*
G54D32*
D03*
X101200Y-277950D02*
G54D32*
D03*
X76200Y-277950D02*
G54D32*
D03*
X51200Y-277950D02*
G54D32*
D03*
X126200Y-277950D02*
G54D32*
D03*
X76200Y-202950D02*
G54D32*
D03*
X51200Y-202950D02*
G54D32*
D03*
G36*
X116200Y-212950D02*
X116200Y-192950D01*
X136200Y-192950D01*
X136200Y-212950D01*
X116200Y-212950D01*
G37*
G54D17*
X51200Y-186250D02*
X51200Y-201950D01*
G54D17*
X50200Y-202950D02*
X35200Y-202950D01*
X15200Y-277950D02*
G54D31*
D03*
X15200Y-202950D02*
G54D31*
D03*
X15200Y-277950D02*
G54D31*
D03*
X15200Y-202950D02*
G54D31*
D03*
X51541Y-166491D02*
G54D31*
D03*
X126541Y-166491D02*
G54D31*
D03*
X51541Y-166491D02*
G54D31*
D03*
X126541Y-166491D02*
G54D31*
D03*
X-11800Y-806950D02*
G54D33*
D03*
X-11800Y-856950D02*
G54D33*
D03*
G54D17*
X36200Y-806950D02*
X-19800Y-806950D01*
G54D17*
X-29800Y-856950D02*
X6200Y-856950D01*
G54D17*
X-11800Y-874950D02*
X-11800Y-837950D01*
G54D17*
X76200Y-277950D02*
X99200Y-277950D01*
X100200Y-276950D01*
G54D17*
X15200Y-277950D02*
X51200Y-277950D01*
X52200Y-276950D01*
X171300Y-297550D02*
G54D31*
D03*
X171300Y-222550D02*
G54D31*
D03*
X171300Y-297550D02*
G54D31*
D03*
X171300Y-222550D02*
G54D31*
D03*
G54D17*
X126200Y-202950D02*
X126200Y-165950D01*
G54D17*
X100200Y-202950D02*
X100200Y-178950D01*
X88200Y-166950D01*
X55200Y-166950D01*
X54200Y-165950D01*
G54D17*
X15200Y-202950D02*
X15200Y-218950D01*
X18200Y-221950D01*
X73200Y-221950D01*
X76200Y-218950D01*
X76200Y-202950D01*
X223200Y-242950D02*
G54D34*
D03*
X223200Y-192950D02*
G54D34*
D03*
X223200Y-292950D02*
G54D34*
D03*
X211200Y-406950D02*
G54D31*
D03*
X211200Y-331950D02*
G54D31*
D03*
X211200Y-406950D02*
G54D31*
D03*
X211200Y-331950D02*
G54D31*
D03*
G54D17*
X146200Y-331950D02*
X301200Y-331950D01*
X355708Y-288021D02*
G54D32*
D03*
X305708Y-288021D02*
G54D32*
D03*
X214200Y-106950D02*
G54D31*
D03*
X289200Y-106950D02*
G54D31*
D03*
X214200Y-106950D02*
G54D31*
D03*
X289200Y-106950D02*
G54D31*
D03*
X228200Y-469950D02*
G54D32*
D03*
X228200Y-519950D02*
G54D32*
D03*
X378200Y-789950D02*
G54D31*
D03*
X378200Y-864950D02*
G54D31*
D03*
X378200Y-789950D02*
G54D31*
D03*
X378200Y-864950D02*
G54D31*
D03*
G54D17*
X360200Y-789950D02*
X397200Y-789950D01*
G54D17*
X378200Y-807950D02*
X378200Y-769950D01*
X441200Y-48950D02*
G54D31*
D03*
X441200Y-123950D02*
G54D31*
D03*
X441200Y-48950D02*
G54D31*
D03*
X441200Y-123950D02*
G54D31*
D03*
X396000Y-48950D02*
G54D31*
D03*
X396000Y-123950D02*
G54D31*
D03*
X396000Y-48950D02*
G54D31*
D03*
X396000Y-123950D02*
G54D31*
D03*
X364700Y-48950D02*
G54D31*
D03*
X364700Y-123950D02*
G54D31*
D03*
X364700Y-48950D02*
G54D31*
D03*
X364700Y-123950D02*
G54D31*
D03*
G54D17*
X471200Y-47950D02*
X441200Y-47950D01*
X441200Y7050D01*
X440200Y8050D01*
X373041Y-243479D02*
G54D32*
D03*
X423041Y-243479D02*
G54D32*
D03*
X15800Y-136550D02*
G54D31*
D03*
X90800Y-136550D02*
G54D31*
D03*
X15800Y-136550D02*
G54D31*
D03*
X90800Y-136550D02*
G54D31*
D03*
X15800Y-98550D02*
G54D31*
D03*
X90800Y-98550D02*
G54D31*
D03*
X15800Y-98550D02*
G54D31*
D03*
X90800Y-98550D02*
G54D31*
D03*
G54D17*
X73200Y-136950D02*
X109200Y-136950D01*
G54D17*
X91200Y-118950D02*
X91200Y-153950D01*
X4900Y-40450D02*
G54D35*
D03*
X4900Y-65450D02*
G54D35*
D03*
G54D17*
X5200Y-37950D02*
X5200Y9050D01*
X6200Y10050D01*
X164810Y-155930D02*
G54D35*
D03*
X164810Y-130930D02*
G54D35*
D03*
G54D17*
X147810Y-155930D02*
X182810Y-155930D01*
G54D17*
X164810Y-155930D02*
X164810Y-171931D01*
X288843Y-52672D02*
G54D32*
D03*
X213843Y-52672D02*
G54D32*
D03*
X213843Y-27672D02*
G54D32*
D03*
X213843Y-2672D02*
G54D32*
D03*
X213843Y-77672D02*
G54D32*
D03*
X288843Y-27672D02*
G54D32*
D03*
X288843Y-2672D02*
G54D32*
D03*
G36*
X278843Y-67672D02*
X298843Y-67672D01*
X298843Y-87672D01*
X278843Y-87672D01*
X278843Y-67672D01*
G37*
X416200Y-865150D02*
G54D31*
D03*
X416200Y-790150D02*
G54D31*
D03*
X416200Y-865150D02*
G54D31*
D03*
X416200Y-790150D02*
G54D31*
D03*
G54D17*
X398200Y-865150D02*
X435200Y-865150D01*
G54D17*
X416200Y-847150D02*
X416200Y-885150D01*
G54D17*
X455200Y-789950D02*
X438200Y-789950D01*
X416200Y-789950D01*
X415200Y-790950D01*
X228200Y-546950D02*
G54D32*
D03*
X228200Y-596950D02*
G54D32*
D03*
G54D17*
X426200Y-518950D02*
X426200Y-468950D01*
G54D17*
X339200Y-864950D02*
X339200Y-901950D01*
X338200Y-902950D01*
G54D17*
X338200Y-900950D02*
X282200Y-900950D01*
X278200Y-896950D01*
G54D17*
X378200Y-863950D02*
X378200Y-888950D01*
X389200Y-899950D01*
G54D17*
X194200Y-406950D02*
X229200Y-406950D01*
G54D17*
X211200Y-424950D02*
X211200Y-387950D01*
G54D17*
X228200Y-468950D02*
X228200Y-440950D01*
X251200Y-417950D01*
X251200Y-331950D01*
X326200Y-106950D02*
G54D31*
D03*
X326200Y-181950D02*
G54D31*
D03*
X326200Y-106950D02*
G54D31*
D03*
X326200Y-181950D02*
G54D31*
D03*
X288741Y-168608D02*
G54D31*
D03*
X288741Y-243608D02*
G54D31*
D03*
X288741Y-168608D02*
G54D31*
D03*
X288741Y-243608D02*
G54D31*
D03*
G54D17*
X289200Y-110950D02*
X289200Y-167950D01*
X288200Y-168950D01*
X326200Y-218850D02*
G54D35*
D03*
X326200Y-243850D02*
G54D35*
D03*
G54D17*
X289200Y-243950D02*
X326200Y-243950D01*
G54D17*
X326200Y-218950D02*
X326200Y-184950D01*
X164849Y-85499D02*
G54D35*
D03*
X164849Y-60499D02*
G54D35*
D03*
G54D17*
X147850Y-85499D02*
X182849Y-85499D01*
G54D17*
X164849Y-85499D02*
X164849Y-101399D01*
X165041Y41691D02*
G54D31*
D03*
X165041Y-33309D02*
G54D31*
D03*
X165041Y41691D02*
G54D31*
D03*
X165041Y-33309D02*
G54D31*
D03*
G54D17*
X309200Y-2950D02*
X270200Y-2950D01*
G54D17*
X289200Y-2950D02*
X289200Y17050D01*
G36*
X190400Y54650D02*
X216000Y54650D01*
X216000Y29050D01*
X190400Y29050D01*
X190400Y54650D01*
G37*
X243200Y41850D02*
G54D36*
D03*
G54D17*
X171200Y41850D02*
X203200Y41850D01*
X204200Y40850D01*
G54D17*
X225200Y41850D02*
X262200Y41850D01*
G54D17*
X243200Y59850D02*
X243200Y20850D01*
G54D17*
X101700Y-277450D02*
X101700Y-292450D01*
X106700Y-297450D01*
X225700Y-297450D01*
X226700Y-296450D01*
G54D17*
X-14700Y-257350D02*
X121700Y-257450D01*
X126700Y-262450D01*
X126700Y-278450D01*
G54D17*
X15400Y-203050D02*
X15400Y-137050D01*
X15900Y-136550D01*
X32100Y-136550D01*
X70000Y-98650D01*
X91800Y-98650D01*
G54D17*
X15800Y-98350D02*
X32700Y-98350D01*
X71500Y-59550D01*
X163900Y-59550D01*
X164100Y-59750D01*
G54D17*
X164900Y-59750D02*
X164900Y-33850D01*
X164700Y-33650D01*
G54D17*
X4700Y-65550D02*
X34300Y-65550D01*
X61000Y-38850D01*
X116400Y-38850D01*
X148800Y-6450D01*
X192400Y-6450D01*
X213900Y-27950D01*
G54D17*
X172000Y-222250D02*
X104800Y-222250D01*
X101000Y-218450D01*
X101000Y-202550D01*
G54D17*
X125700Y-202950D02*
X156700Y-202950D01*
X167300Y-192350D01*
X221300Y-192350D01*
G54D17*
X471300Y-122750D02*
X471300Y-441850D01*
X462300Y-450850D01*
X274200Y-450850D01*
X264900Y-460150D01*
X264900Y-510550D01*
X228200Y-547250D01*
G54D17*
X223200Y-242950D02*
X223600Y-242950D01*
X268600Y-287950D01*
X304200Y-287950D01*
X305600Y-289350D01*
G54D17*
X372900Y-243450D02*
X372900Y-187850D01*
X326300Y-141250D01*
X326300Y-109950D01*
X326500Y-109750D01*
G54D17*
X326200Y-109950D02*
X326200Y-37150D01*
X317000Y-27950D01*
X288200Y-27950D01*
X287500Y-27250D01*
G54D17*
X289000Y-52550D02*
X270400Y-52550D01*
X268200Y-54750D01*
X268200Y-104350D01*
X270600Y-106750D01*
X290800Y-106750D01*
G54D17*
X239000Y-133050D02*
X239000Y-30550D01*
X236200Y-27750D01*
X214900Y-27750D01*
X214800Y-27650D01*
G54D17*
X214400Y-106950D02*
X238800Y-106950D01*
X238900Y-106850D01*
G54D17*
X214200Y-52850D02*
X193000Y-52850D01*
X185800Y-60050D01*
X165000Y-60050D01*
X164200Y-60850D01*
G54D17*
X164800Y-130750D02*
X123400Y-130750D01*
X90800Y-98150D01*
G54D17*
X278500Y-858050D02*
X278500Y-849050D01*
X302700Y-824850D01*
X302700Y-788050D01*
X264900Y-750250D01*
X264900Y-643950D01*
X300500Y-608350D01*
X300500Y-572850D01*
X300800Y-572550D01*
G54D17*
X83900Y-853550D02*
X108500Y-853550D01*
X141600Y-820550D01*
X141600Y-796550D01*
X157300Y-780850D01*
X183200Y-780850D01*
X198300Y-795950D01*
X198300Y-825750D01*
X225100Y-852550D01*
G54D17*
X-11300Y-806950D02*
X-40500Y-806950D01*
X-45400Y-811850D01*
X-45400Y-861950D01*
X27850Y-935200D01*
X400250Y-935200D01*
X456600Y-878850D01*
X456600Y-839350D01*
X455200Y-837950D01*
X146300Y-685050D02*
G54D37*
D03*
X82900Y-685050D02*
G54D37*
D03*
G54D17*
X103200Y-684750D02*
X63600Y-684750D01*
G54D17*
X83200Y-665150D02*
X83200Y-705050D01*
X83300Y-705150D01*
G54D17*
X146300Y-665450D02*
X146300Y-704750D01*
X146200Y-704850D01*
G54D17*
X126100Y-684550D02*
X166400Y-684550D01*
X166500Y-684450D01*
G54D17*
X36300Y-807450D02*
X110400Y-807450D01*
X114800Y-803250D01*
X114700Y-647950D01*
X109500Y-642650D01*
X-13400Y-642650D01*
X-15900Y-640150D01*
X-15900Y-256250D01*
X-15800Y-256150D01*
G54D17*
X-15900Y-257950D02*
X-15900Y-103050D01*
X-11200Y-98350D01*
X16100Y-98350D01*
X16400Y-98650D01*
G54D17*
X228300Y-519650D02*
X228300Y-519850D01*
X207400Y-540750D01*
X207400Y-594750D01*
X209700Y-597050D01*
X230500Y-597050D01*
G54D17*
X378200Y-864850D02*
X378200Y-823250D01*
X386500Y-814950D01*
X454800Y-814950D01*
X455800Y-815950D01*
G54D17*
X82900Y-775050D02*
X-39900Y-775050D01*
X-45200Y-769750D01*
X-45200Y750D01*
X-7900Y38050D01*
X53000Y38050D01*
X55700Y35350D01*
X55700Y5050D01*
X55600Y4950D01*
G54D17*
X441200Y-123450D02*
X441200Y-92750D01*
X437400Y-88950D01*
X368900Y-88950D01*
X364700Y-93150D01*
X364700Y-140750D01*
X423500Y-199550D01*
X423500Y-243750D01*
X423000Y-244250D01*
G54D17*
X395700Y-124250D02*
X396400Y-124250D01*
X451200Y-179050D01*
X451200Y-284350D01*
X447200Y-288350D01*
X358000Y-288350D01*
X357500Y-288850D01*
G54D17*
X364400Y-48550D02*
X364400Y-18550D01*
X346100Y-250D01*
G54D17*
X365000Y-48550D02*
X397800Y-48550D01*
X398900Y-49650D01*
G54D17*
X164500Y-131050D02*
X188000Y-131050D01*
X216500Y-159550D01*
X255000Y-159550D01*
X258300Y-162850D01*
X258300Y-196050D01*
X262600Y-200350D01*
X326000Y-200350D01*
X326100Y-200450D01*
G54D38*
X433850Y-388900D02*
X435650Y-391900D01*
X439250Y-393400D01*
X442850Y-393400D01*
X446450Y-391900D01*
X448250Y-388900D01*
X448250Y-373900D01*
X446450Y-370900D01*
X442850Y-369400D01*
X439250Y-369400D01*
X435650Y-370900D01*
X433850Y-373900D01*
G54D38*
X412850Y-373900D02*
X412850Y-388900D01*
X414650Y-391900D01*
X418250Y-393400D01*
X421850Y-393400D01*
X425450Y-391900D01*
X427250Y-388900D01*
X427250Y-373900D01*
X425450Y-370900D01*
X421850Y-369400D01*
X418250Y-369400D01*
X414650Y-370900D01*
X412850Y-373900D01*
G54D38*
X391850Y-388900D02*
X393650Y-391900D01*
X397250Y-393400D01*
X400850Y-393400D01*
X404450Y-391900D01*
X406250Y-388900D01*
X406250Y-373900D01*
X404450Y-370900D01*
X400850Y-369400D01*
X397250Y-369400D01*
X393650Y-370900D01*
X391850Y-373900D01*
G54D38*
X378050Y-393400D02*
X378050Y-369400D01*
G54D38*
X385250Y-369400D02*
X370850Y-369400D01*
G54D38*
X364250Y-393400D02*
X355250Y-369400D01*
X346250Y-393400D01*
G54D38*
X360650Y-384400D02*
X349850Y-384400D01*
G54D38*
X339650Y-393400D02*
X325250Y-393400D01*
G54D38*
X332450Y-393400D02*
X332450Y-369400D01*
G54D38*
X339650Y-369400D02*
X325250Y-369400D01*
G54D38*
X318650Y-369400D02*
X318650Y-393400D01*
X306050Y-393400D01*
G54D38*
X441050Y-429750D02*
X441050Y-405750D01*
X432050Y-405750D01*
X428450Y-407250D01*
X426650Y-410250D01*
X426650Y-413250D01*
X428450Y-416250D01*
X432050Y-417750D01*
X428450Y-419250D01*
X426650Y-422250D01*
X426650Y-425250D01*
X428450Y-428250D01*
X432050Y-429750D01*
X441050Y-429750D01*
G54D38*
X441050Y-417750D02*
X432050Y-417750D01*
G54D38*
X420050Y-405750D02*
X420050Y-429750D01*
X407450Y-429750D01*
G54D38*
X388250Y-429750D02*
X400850Y-429750D01*
X400850Y-405750D01*
X388250Y-405750D01*
G54D38*
X400850Y-417750D02*
X388250Y-417750D01*
G54D38*
X381650Y-429750D02*
X381650Y-405750D01*
X367250Y-429750D01*
X367250Y-405750D01*
G54D38*
X360650Y-429750D02*
X360650Y-405750D01*
X351650Y-405750D01*
X348050Y-407250D01*
X346250Y-410250D01*
X346250Y-425250D01*
X348050Y-428250D01*
X351650Y-429750D01*
X360650Y-429750D01*
G54D38*
X327050Y-429750D02*
X339650Y-429750D01*
X339650Y-405750D01*
X327050Y-405750D01*
G54D38*
X339650Y-417750D02*
X327050Y-417750D01*
G54D38*
X313250Y-417750D02*
X307850Y-420750D01*
X306050Y-423750D01*
X306050Y-429750D01*
G54D38*
X320450Y-429750D02*
X320450Y-405750D01*
X311450Y-405750D01*
X307850Y-407250D01*
X306050Y-410250D01*
X306050Y-413250D01*
X307850Y-416250D01*
X311450Y-417750D01*
X320450Y-417750D01*
X223400Y-707150D02*
G54D39*
D03*
G54D17*
X204900Y-707150D02*
X241900Y-707150D01*
G54D17*
X223300Y-724950D02*
X223300Y-688350D01*
G54D17*
X177100Y-534250D02*
X177100Y-379250D01*
X172400Y-374550D01*
X57800Y-374550D01*
X51700Y-368450D01*
X51700Y-281050D01*
X49500Y-278850D01*
G36*
X30700Y-435050D02*
X9300Y-435050D01*
X9300Y-413650D01*
X30700Y-413650D01*
X30700Y-435050D01*
G37*
X20000Y-449350D02*
G54D31*
D03*
G54D17*
X19900Y-493350D02*
X19900Y-449750D01*
X20100Y-449550D01*
G54D17*
X3600Y-424050D02*
X37700Y-424050D01*
X37800Y-423950D01*
G54D17*
X20100Y-423850D02*
X20100Y-405050D01*
G54D17*
X228500Y-596750D02*
X259600Y-596750D01*
X262200Y-594150D01*
X262200Y-540750D01*
X267300Y-535650D01*
X330200Y-535650D01*
X331700Y-537150D01*
X331700Y-637550D01*
X339600Y-645450D01*
X466000Y-645450D01*
X473800Y-653250D01*
X473800Y-772550D01*
X456600Y-789750D01*
M02*
