; Drill file
; Format: 3.3 (000.000)
M48
METRIC
T01C0.7
T02C1.0
T03C2.0
%
G05
G90
T01
X003590Y-090100
X008380Y-085360
X003620Y-083300
X003620Y-080760
X008380Y-077860
X008290Y-068500
X014630Y-068500
X022340Y-070720
X022820Y-059700
X022820Y-054700
X022820Y-052000
X022820Y-047000
X021120Y-040700
X021120Y-033200
X017130Y-029760
X012620Y-027800
X010120Y-027800
X007620Y-027800
X005120Y-027800
X001520Y-027800
X001520Y-020300
X005120Y-020300
X007620Y-020300
X010120Y-020300
X012620Y-020300
X012650Y-016650
X016480Y-015590
X016480Y-013090
X016480Y-008550
X016480Y-006050
X016500Y-003330
X021380Y-002770
X021380Y-005270
X021380Y-007770
X021420Y-010700
X023900Y-013320
X028900Y-013320
X028920Y-010700
X028880Y-007770
X028880Y-005270
X028880Y-002770
X028880Y-000270
X021380Y-000270
X016500Y004170
X009080Y-009860
X009080Y-013660
X005150Y-016650
X001580Y-013660
X001580Y-009860
X000490Y-006540
X000490Y-004040
X017130Y-022260
X028870Y-024360
X032620Y-024380
X032620Y-021880
X032620Y-018200
X028870Y-016860
X032620Y-010700
X036470Y-012400
X039600Y-012400
X044120Y-012400
X047120Y-012300
X047120Y-004800
X044120Y-004900
X039600Y-004900
X036470Y-004900
X037300Y-024350
X035570Y-028800
X030570Y-028800
X042300Y-024350
X017720Y-053400
X012720Y-053400
X009520Y-053400
X002020Y-053400
X002000Y-044940
X002000Y-042440
X011090Y-090100
X033920Y-090100
X033920Y-086500
X037820Y-086500
X038920Y-090100
X041620Y-086520
X045670Y-084000
X045670Y-081500
X045670Y-079000
X041620Y-079020
X037820Y-079000
X033920Y-079000
T02
X-001180Y-085700
X-001180Y-080700
X022320Y-029300
X022320Y-024300
X022320Y-019300
X010520Y000500
X005520Y000500
X000520Y000500
X020320Y004180
X024320Y004180
X034120Y000500
X039120Y000500
X044120Y000500
T03
X002020Y-073600
X008320Y-073600
X014620Y-073600
X017120Y-080800
X017120Y-085400
X017120Y-090000
X022320Y-090000
X022320Y-085400
X022320Y-080800
X027520Y-080800
X027520Y-085400
X027520Y-090000
X030020Y-073600
X036320Y-073600
X042620Y-073600
X042620Y-057400
X036320Y-057400
X030020Y-057400
X030020Y-049400
X036320Y-049400
X042620Y-049400
X042620Y-033200
X036320Y-033200
X030020Y-033200
X014620Y-033200
X008320Y-033200
X002020Y-033200
X002020Y-049400
X008320Y-049400
X014620Y-049400
X014620Y-057400
X008320Y-057400
X002020Y-057400
M30
